<?xml version="1.0" encoding="UTF-8" standalone="no"?>
<!-- Generator: Adobe Illustrator 15.0.1, SVG Export Plug-In . SVG Version: 6.00 Build 0)  -->

<svg
   xmlns:dc="http://purl.org/dc/elements/1.1/"
   xmlns:cc="http://creativecommons.org/ns#"
   xmlns:rdf="http://www.w3.org/1999/02/22-rdf-syntax-ns#"
   xmlns:svg="http://www.w3.org/2000/svg"
   xmlns="http://www.w3.org/2000/svg"
   xmlns:sodipodi="http://sodipodi.sourceforge.net/DTD/sodipodi-0.dtd"
   xmlns:inkscape="http://www.inkscape.org/namespaces/inkscape"
   version="1.1"
   id="Layer_1"
   x="0px"
   y="0px"
   width="28px"
   height="28px"
   viewBox="0 0 28 28"
   enable-background="new 0 0 28 28"
   xml:space="preserve"
   inkscape:version="0.48.0 r9654"
   sodipodi:docname="cinema.svg"><metadata
   id="metadata30"><rdf:RDF><cc:Work
       rdf:about=""><dc:format>image/svg+xml</dc:format><dc:type
         rdf:resource="http://purl.org/dc/dcmitype/StillImage" /><dc:title></dc:title></cc:Work></rdf:RDF></metadata><defs
   id="defs28">
	<linearGradient
   y2="28"
   x2="14"
   y1="0"
   x1="14"
   gradientUnits="userSpaceOnUse"
   id="SVGID_1_">
		<stop
   id="stop6"
   style="stop-color:#B2CD8B"
   offset="0" />
		<stop
   id="stop8"
   style="stop-color:#9EC06E"
   offset="0.0576" />
		<stop
   id="stop10"
   style="stop-color:#8DB553"
   offset="0.1251" />
		<stop
   id="stop12"
   style="stop-color:#7EAB3D"
   offset="0.2028" />
		<stop
   id="stop14"
   style="stop-color:#73A42C"
   offset="0.2935" />
		<stop
   id="stop16"
   style="stop-color:#6B9F21"
   offset="0.4057" />
		<stop
   id="stop18"
   style="stop-color:#669C1A"
   offset="0.5631" />
		<stop
   id="stop20"
   style="stop-color:#659B18"
   offset="1" />
	</linearGradient>
	
</defs><sodipodi:namedview
   pagecolor="#ffffff"
   bordercolor="#666666"
   borderopacity="1"
   objecttolerance="10"
   gridtolerance="10"
   guidetolerance="10"
   inkscape:pageopacity="0"
   inkscape:pageshadow="2"
   inkscape:window-width="1280"
   inkscape:window-height="723"
   id="namedview26"
   showgrid="false"
   inkscape:zoom="9.1785714"
   inkscape:cx="-6.1011673"
   inkscape:cy="14"
   inkscape:window-x="0"
   inkscape:window-y="24"
   inkscape:window-maximized="1"
   inkscape:current-layer="Layer_1" />
<path
   inkscape:connector-curvature="0"
   style="fill:#659b18;fill-opacity:1"
   id="path22"
   d="m 28,25 c 0,1.65 -1.35,3 -3,3 H 3 C 1.35,28 0,26.65 0,25 V 3 C 0,1.35 1.35,0 3,0 h 22 c 1.65,0 3,1.35 3,3 v 22 z" />
<path
   d="M23.063,8.042l-1.216-3.704L4,10.198l1.216,3.704L23.063,8.042z M19.34,5.419l2.64,2.719l-2.598,0.853  l-2.64-2.719L19.34,5.419z M13.44,7.357l2.64,2.719l-2.598,0.853l-2.64-2.719L13.44,7.357z M7.54,9.294l2.64,2.719l-2.597,0.854  l-2.64-2.72L7.54,9.294z M5.216,14.683v3.898v5.081H24v-5.081v-3.898H5.216z M20.207,14.928h2.734l-1.66,3.407h-2.734L20.207,14.928  z M13.997,14.928h2.734l-1.66,3.407h-2.734L13.997,14.928z M7.787,14.928h2.734l-1.66,3.407H6.127L7.787,14.928z"
   id="path24"
   style="fill:#ffffff;fill-opacity:1" />
</svg>