<?xml version="1.0" encoding="UTF-8" standalone="no"?>
<!-- Generator: Adobe Illustrator 15.0.1, SVG Export Plug-In . SVG Version: 6.00 Build 0)  -->

<svg
   xmlns:dc="http://purl.org/dc/elements/1.1/"
   xmlns:cc="http://creativecommons.org/ns#"
   xmlns:rdf="http://www.w3.org/1999/02/22-rdf-syntax-ns#"
   xmlns:svg="http://www.w3.org/2000/svg"
   xmlns="http://www.w3.org/2000/svg"
   xmlns:sodipodi="http://sodipodi.sourceforge.net/DTD/sodipodi-0.dtd"
   xmlns:inkscape="http://www.inkscape.org/namespaces/inkscape"
   version="1.1"
   id="Layer_1"
   x="0px"
   y="0px"
   width="28px"
   height="28px"
   viewBox="0 0 28 28"
   enable-background="new 0 0 28 28"
   xml:space="preserve"
   inkscape:version="0.48.0 r9654"
   sodipodi:docname="fast-food.svg"><metadata
   id="metadata32"><rdf:RDF><cc:Work
       rdf:about=""><dc:format>image/svg+xml</dc:format><dc:type
         rdf:resource="http://purl.org/dc/dcmitype/StillImage" /><dc:title></dc:title></cc:Work></rdf:RDF></metadata><defs
   id="defs30">
	<linearGradient
   y2="28"
   x2="14"
   y1="0"
   x1="14"
   gradientUnits="userSpaceOnUse"
   id="SVGID_1_">
		<stop
   id="stop6"
   style="stop-color:#FFD080"
   offset="0" />
		<stop
   id="stop8"
   style="stop-color:#FFCD76"
   offset="0.0155" />
		<stop
   id="stop10"
   style="stop-color:#FFC257"
   offset="0.075" />
		<stop
   id="stop12"
   style="stop-color:#FFB83B"
   offset="0.1424" />
		<stop
   id="stop14"
   style="stop-color:#FFB025"
   offset="0.2185" />
		<stop
   id="stop16"
   style="stop-color:#FFA914"
   offset="0.3074" />
		<stop
   id="stop18"
   style="stop-color:#FFA509"
   offset="0.4174" />
		<stop
   id="stop20"
   style="stop-color:#FFA302"
   offset="0.5717" />
		<stop
   id="stop22"
   style="stop-color:#FFA200"
   offset="1" />
	</linearGradient>
	
</defs><sodipodi:namedview
   pagecolor="#ffffff"
   bordercolor="#666666"
   borderopacity="1"
   objecttolerance="10"
   gridtolerance="10"
   guidetolerance="10"
   inkscape:pageopacity="0"
   inkscape:pageshadow="2"
   inkscape:window-width="1280"
   inkscape:window-height="723"
   id="namedview28"
   showgrid="false"
   inkscape:zoom="9.1785714"
   inkscape:cx="-6.1011673"
   inkscape:cy="14"
   inkscape:window-x="0"
   inkscape:window-y="24"
   inkscape:window-maximized="1"
   inkscape:current-layer="Layer_1" />
<path
   inkscape:connector-curvature="0"
   style="fill:#ffa200;fill-opacity:1"
   id="path24"
   d="m 28,25 c 0,1.65 -1.35,3 -3,3 H 3 C 1.35,28 0,26.65 0,25 V 3 C 0,1.35 1.35,0 3,0 h 22 c 1.65,0 3,1.35 3,3 v 22 z" />
<path
   d="M13.058,4c8.948,4.196,10.844,11.639,10.844,11.639l-1.744,0.631C18.746,7.562,12.072,5.664,12.072,5.664  L13.058,4z M21.21,16.896L4.098,24l7.584-17.456C11.682,6.544,18.488,8.574,21.21,16.896z M12.095,18.178  c0-0.832-0.675-1.507-1.507-1.507c-0.833,0-1.509,0.675-1.509,1.507c0,0.834,0.675,1.509,1.509,1.509  C11.42,19.687,12.095,19.012,12.095,18.178z M12.711,13.873c0-0.832-0.675-1.507-1.508-1.507c-0.833,0-1.507,0.675-1.507,1.507  s0.675,1.508,1.507,1.508C12.037,15.381,12.711,14.705,12.711,13.873z M16.648,16.087c0-0.832-0.675-1.507-1.508-1.507  c-0.833,0-1.507,0.675-1.507,1.507c0,0.834,0.675,1.509,1.507,1.509C15.973,17.596,16.648,16.921,16.648,16.087z M16.673,11.797  c0-0.832-0.675-1.507-1.507-1.507c-0.833,0-1.508,0.675-1.508,1.507s0.675,1.508,1.508,1.508  C15.998,13.305,16.673,12.629,16.673,11.797z"
   id="path26"
   style="fill:#ffffff;fill-opacity:1" />
</svg>