<?xml version="1.0" encoding="utf-8"?>
<!-- Generator: Adobe Illustrator 14.0.0, SVG Export Plug-In . SVG Version: 6.00 Build 43363)  -->
<!DOCTYPE svg PUBLIC "-//W3C//DTD SVG 1.1//EN" "http://www.w3.org/Graphics/SVG/1.1/DTD/svg11.dtd">
<svg version="1.1" id="Layer_1" xmlns="http://www.w3.org/2000/svg" xmlns:xlink="http://www.w3.org/1999/xlink" x="0px" y="0px"
	 width="30px" height="30px" viewBox="-291 381 30 30" enable-background="new -291 381 30 30" xml:space="preserve">
<path d="M-274.767,404.425c0.9-0.39,1.32-0.336,2.059,0.05c0.74,0.387,1.48,0.387,2.354-0.059c0.873-0.444,1.584-0.19,1.979,0.049
	c0.33,0.2,0.66,0.279,1.154,0.279v-1.095c-0.744,0.001-1.064-0.252-1.064-0.252c-0.768-0.475-1.473-0.381-2.439,0.124
	c-0.553,0.285-1.428,0.211-2.047-0.112c-0.855-0.445-1.338-0.336-2.234,0.062c-0.693,0.309-1.318,0.307-2.01,0
	c-0.895-0.399-1.355-0.508-2.209-0.062c-0.621,0.323-1.508,0.397-2.061,0.112c-0.969-0.505-1.66-0.599-2.428-0.124
	c0,0-0.332,0.252-1.062,0.252v1.095c0.461,0,0.82-0.089,1.131-0.279c0.393-0.241,1.127-0.493,2-0.049
	c0.873,0.445,1.613,0.445,2.354,0.059c0.74-0.386,1.15-0.456,2.049-0.067C-276.37,404.853-275.507,404.812-274.767,404.425z"/>
<path d="M-274.786,402.081c0.709-0.36,1.35-0.341,2.088,0.046c0.74,0.389,1.48,0.389,2.354-0.058
	c0.873-0.445,1.605-0.219,2.012-0.001c0.357,0.192,0.607,0.292,1.119,0.329v-1.249c-0.652-0.017-1.062-0.252-1.062-0.252
	c-1.51-0.823-2.168,0.18-2.979,0.18v-4.017l1.252-2.886c0.189-0.445,0-0.852-0.455-1.046l-0.76-0.309v-2.498h-1.463v-1.316h-2.047
	v-1.763h-1.271h-1.271v1.763h-2.049v1.316h-1.463v2.498l-0.76,0.309c-0.455,0.194-0.645,0.601-0.455,1.046l1.252,2.886v4.017h0.002
	c-0.812,0-1.502-0.987-2.98-0.163l0,0c0,0-0.422,0.235-1.062,0.251v1.233c0.5-0.037,0.74-0.117,1.119-0.329
	c0.402-0.226,1.139-0.444,2.012,0.001c0.873,0.446,1.613,0.446,2.354,0.058c0.74-0.387,1.385-0.406,2.078-0.058
	C-276.351,402.516-275.667,402.521-274.786,402.081z"/>
<polygon fill="#FFFFFF" points="-275.999,390.05 -278.239,390.05 -278.239,391.347 -279.7,391.347 -279.7,392.354 -275.999,390.828 
	-272.3,392.354 -272.3,391.347 -273.761,391.347 -273.761,390.05 "/>
</svg>
