<?xml version="1.0" encoding="UTF-8" standalone="no"?>
<!-- Created with Inkscape (http://www.inkscape.org/) -->

<svg
   xmlns:dc="http://purl.org/dc/elements/1.1/"
   xmlns:cc="http://creativecommons.org/ns#"
   xmlns:rdf="http://www.w3.org/1999/02/22-rdf-syntax-ns#"
   xmlns:svg="http://www.w3.org/2000/svg"
   xmlns="http://www.w3.org/2000/svg"
   version="1.1"
   width="30"
   height="30"
   viewBox="0 0 30 30"
   id="Layer_1"
   xml:space="preserve"><metadata
   id="metadata3081"><rdf:RDF><cc:Work
       rdf:about=""><dc:format>image/svg+xml</dc:format><dc:type
         rdf:resource="http://purl.org/dc/dcmitype/StillImage" /><dc:title></dc:title></cc:Work></rdf:RDF></metadata><defs
   id="defs3079" />
<path
   d="M 12.34375,6.46875 C 11.483863,6.7069865 11.805804,7.8275005 11.78125,8.5 c 0.155089,4.250021 0.319446,8.499871 0.46875,12.75 -1.100277,0.08514 -2.5093875,0.118772 -3.25,0.90625 0.4948554,0.732762 1.654199,0.653506 2.46875,0.90625 1.813313,0.218527 3.755915,0.122446 5.414461,-0.664461 0.453899,-0.427048 -0.436558,-0.598211 -0.718821,-0.77218 -0.783693,-0.297555 -1.644943,-0.344561 -2.47689,-0.407109 -0.09716,-3.145951 -0.213593,-6.291578 -0.3125,-9.4375 2.268351,-0.804964 4.556475,-1.560306 6.84375,-2.3125 -2.332954,-0.5408562 -4.655996,-1.1438032 -7,-1.625 0.08387,-0.539499 -0.147227,-1.5630395 -0.875,-1.375 z"
   id="path3075"
   style="fill:#3d6f55" />
</svg>