<?xml version="1.0" encoding="UTF-8" standalone="no"?>
<!-- Generator: Adobe Illustrator 15.0.1, SVG Export Plug-In . SVG Version: 6.00 Build 0)  -->

<svg
   xmlns:dc="http://purl.org/dc/elements/1.1/"
   xmlns:cc="http://creativecommons.org/ns#"
   xmlns:rdf="http://www.w3.org/1999/02/22-rdf-syntax-ns#"
   xmlns:svg="http://www.w3.org/2000/svg"
   xmlns="http://www.w3.org/2000/svg"
   xmlns:sodipodi="http://sodipodi.sourceforge.net/DTD/sodipodi-0.dtd"
   xmlns:inkscape="http://www.inkscape.org/namespaces/inkscape"
   version="1.1"
   id="Layer_1"
   x="0px"
   y="0px"
   width="28px"
   height="28px"
   viewBox="0 0 28 28"
   enable-background="new 0 0 28 28"
   xml:space="preserve"
   inkscape:version="0.48.0 r9654"
   sodipodi:docname="hotel.svg"><metadata
   id="metadata30"><rdf:RDF><cc:Work
       rdf:about=""><dc:format>image/svg+xml</dc:format><dc:type
         rdf:resource="http://purl.org/dc/dcmitype/StillImage" /><dc:title></dc:title></cc:Work></rdf:RDF></metadata><defs
   id="defs28">
	<linearGradient
   y2="28"
   x2="14"
   y1="0"
   x1="14"
   gradientUnits="userSpaceOnUse"
   id="SVGID_1_">
		<stop
   id="stop6"
   style="stop-color:#EA9A9B"
   offset="0" />
		<stop
   id="stop8"
   style="stop-color:#E78C8D"
   offset="0.0309" />
		<stop
   id="stop10"
   style="stop-color:#E17173"
   offset="0.1004" />
		<stop
   id="stop12"
   style="stop-color:#DD5B5D"
   offset="0.1803" />
		<stop
   id="stop14"
   style="stop-color:#D94A4C"
   offset="0.2736" />
		<stop
   id="stop16"
   style="stop-color:#D73F41"
   offset="0.3889" />
		<stop
   id="stop18"
   style="stop-color:#D5383A"
   offset="0.5507" />
		<stop
   id="stop20"
   style="stop-color:#D53638"
   offset="1" />
	</linearGradient>
	
</defs><sodipodi:namedview
   pagecolor="#ffffff"
   bordercolor="#666666"
   borderopacity="1"
   objecttolerance="10"
   gridtolerance="10"
   guidetolerance="10"
   inkscape:pageopacity="0"
   inkscape:pageshadow="2"
   inkscape:window-width="1280"
   inkscape:window-height="723"
   id="namedview26"
   showgrid="false"
   inkscape:zoom="9.1785714"
   inkscape:cx="-6.1011673"
   inkscape:cy="14"
   inkscape:window-x="0"
   inkscape:window-y="24"
   inkscape:window-maximized="1"
   inkscape:current-layer="Layer_1" />
<path
   inkscape:connector-curvature="0"
   style="fill:#d53638;fill-opacity:1"
   id="path22"
   d="m 28,25 c 0,1.65 -1.35,3 -3,3 H 3 C 1.35,28 0,26.65 0,25 V 3 C 0,1.35 1.35,0 3,0 h 22 c 1.65,0 3,1.35 3,3 v 22 z" />
<path
   d="M5.627,16.984v3.109H4V8.726c0-0.451,0.361-0.819,0.812-0.819l0,0c0.455,0,0.814,0.368,0.814,0.819v6.721  h18.348v4.647h-1.638v-3.109H5.627z M8.132,12.001c0.814,0,1.474-0.66,1.474-1.476c0-0.814-0.659-1.474-1.474-1.474  s-1.474,0.66-1.474,1.474C6.658,11.341,7.318,12.001,8.132,12.001z M24,14.225l-0.004-2.031c-0.006-0.642-0.544-1.087-1.176-1.166  L11.237,9.874c-0.023-0.004-0.042-0.015-0.063-0.015c-0.402,0-0.726,0.328-0.726,0.726v2.188H7.42c-0.406,0-0.731,0.327-0.731,0.725  c0,0.404,0.325,0.727,0.731,0.727H24z"
   id="path24"
   style="fill:#ffffff;fill-opacity:1" />
</svg>