<?xml version="1.0" encoding="UTF-8" standalone="no"?>
<!-- Generator: Adobe Illustrator 15.0.1, SVG Export Plug-In . SVG Version: 6.00 Build 0)  -->

<svg
   xmlns:dc="http://purl.org/dc/elements/1.1/"
   xmlns:cc="http://creativecommons.org/ns#"
   xmlns:rdf="http://www.w3.org/1999/02/22-rdf-syntax-ns#"
   xmlns:svg="http://www.w3.org/2000/svg"
   xmlns="http://www.w3.org/2000/svg"
   xmlns:sodipodi="http://sodipodi.sourceforge.net/DTD/sodipodi-0.dtd"
   xmlns:inkscape="http://www.inkscape.org/namespaces/inkscape"
   version="1.1"
   id="Layer_1"
   x="0px"
   y="0px"
   width="28px"
   height="28px"
   viewBox="0 0 28 28"
   enable-background="new 0 0 28 28"
   xml:space="preserve"
   inkscape:version="0.48.0 r9654"
   sodipodi:docname="information.svg"><metadata
   id="metadata30"><rdf:RDF><cc:Work
       rdf:about=""><dc:format>image/svg+xml</dc:format><dc:type
         rdf:resource="http://purl.org/dc/dcmitype/StillImage" /><dc:title></dc:title></cc:Work></rdf:RDF></metadata><defs
   id="defs28">
	<linearGradient
   y2="28"
   x2="14"
   y1="0"
   x1="14"
   gradientUnits="userSpaceOnUse"
   id="SVGID_1_">
		<stop
   id="stop6"
   style="stop-color:#91C7DA"
   offset="0" />
		<stop
   id="stop8"
   style="stop-color:#7ABBD3"
   offset="0.0475" />
		<stop
   id="stop10"
   style="stop-color:#5FADCA"
   offset="0.1158" />
		<stop
   id="stop12"
   style="stop-color:#49A2C2"
   offset="0.1943" />
		<stop
   id="stop14"
   style="stop-color:#3899BD"
   offset="0.2859" />
		<stop
   id="stop16"
   style="stop-color:#2D93B9"
   offset="0.3993" />
		<stop
   id="stop18"
   style="stop-color:#2690B7"
   offset="0.5584" />
		<stop
   id="stop20"
   style="stop-color:#248FB6"
   offset="1" />
	</linearGradient>
	
</defs><sodipodi:namedview
   pagecolor="#ffffff"
   bordercolor="#666666"
   borderopacity="1"
   objecttolerance="10"
   gridtolerance="10"
   guidetolerance="10"
   inkscape:pageopacity="0"
   inkscape:pageshadow="2"
   inkscape:window-width="1280"
   inkscape:window-height="723"
   id="namedview26"
   showgrid="false"
   inkscape:zoom="9.1785714"
   inkscape:cx="14"
   inkscape:cy="14"
   inkscape:window-x="0"
   inkscape:window-y="24"
   inkscape:window-maximized="1"
   inkscape:current-layer="Layer_1" />
<path
   inkscape:connector-curvature="0"
   style="fill:#248fb6;fill-opacity:1"
   id="path22"
   d="m 28,25 c 0,1.65 -1.35,3 -3,3 H 3 C 1.35,28 0,26.65 0,25 V 3 C 0,1.35 1.35,0 3,0 h 22 c 1.65,0 3,1.35 3,3 v 22 z" />
<path
   d="M16.6,8.633c0.065,0.037,0.091,0.086,0.08,0.139L13.082,20.59c-0.167,0.63-0.25,1.006-0.25,1.125  c0,0.167,0.036,0.312,0.107,0.432c0.059,0.132,0.208,0.199,0.445,0.199c0.404,0,0.938-0.327,1.604-0.977  c0.393-0.388,0.874-0.938,1.444-1.654l0.463,0.363l-0.178,0.231c-0.891,1.159-1.628,1.992-2.209,2.499  C13.592,23.604,12.701,24,11.833,24c-0.511,0-0.935-0.199-1.274-0.595c-0.339-0.397-0.508-0.866-0.508-1.405  c0-0.321,0.022-0.599,0.07-0.838c0.048-0.237,0.136-0.587,0.268-1.05l2.538-8.508c0.036-0.133,0.065-0.254,0.088-0.363  c0.024-0.112,0.036-0.223,0.036-0.331c0-0.398-0.157-0.645-0.471-0.738c-0.315-0.092-0.935-0.141-1.861-0.141V9.487  c0.979-0.112,1.684-0.197,2.113-0.258c0.431-0.062,0.864-0.125,1.3-0.191c0.566-0.085,1.103-0.185,1.61-0.298  C16.25,8.629,16.535,8.595,16.6,8.633z M14.917,7.098C14.573,6.743,14.4,6.317,14.4,5.822c0-0.507,0.172-0.938,0.517-1.291  C15.262,4.179,15.678,4,16.165,4s0.906,0.179,1.257,0.53c0.35,0.354,0.526,0.784,0.526,1.291c0,0.509-0.177,0.934-0.526,1.283  c-0.351,0.347-0.77,0.522-1.257,0.522S15.262,7.449,14.917,7.098z"
   id="path24"
   style="fill:#ffffff;fill-opacity:1" />
</svg>