<?xml version="1.0" encoding="UTF-8" standalone="no"?>
<!-- Generator: Adobe Illustrator 15.0.1, SVG Export Plug-In . SVG Version: 6.00 Build 0)  -->

<svg
   xmlns:dc="http://purl.org/dc/elements/1.1/"
   xmlns:cc="http://creativecommons.org/ns#"
   xmlns:rdf="http://www.w3.org/1999/02/22-rdf-syntax-ns#"
   xmlns:svg="http://www.w3.org/2000/svg"
   xmlns="http://www.w3.org/2000/svg"
   xmlns:sodipodi="http://sodipodi.sourceforge.net/DTD/sodipodi-0.dtd"
   xmlns:inkscape="http://www.inkscape.org/namespaces/inkscape"
   version="1.1"
   id="Layer_1"
   x="0px"
   y="0px"
   width="28px"
   height="28px"
   viewBox="0 0 28 28"
   enable-background="new 0 0 28 28"
   xml:space="preserve"
   inkscape:version="0.48.0 r9654"
   sodipodi:docname="laundry.svg"><metadata
   id="metadata30"><rdf:RDF><cc:Work
       rdf:about=""><dc:format>image/svg+xml</dc:format><dc:type
         rdf:resource="http://purl.org/dc/dcmitype/StillImage" /><dc:title></dc:title></cc:Work></rdf:RDF></metadata><defs
   id="defs28">
	<linearGradient
   y2="28"
   x2="14"
   y1="0"
   x1="14"
   gradientUnits="userSpaceOnUse"
   id="SVGID_1_">
		<stop
   id="stop6"
   style="stop-color:#91C7DA"
   offset="0" />
		<stop
   id="stop8"
   style="stop-color:#7ABBD3"
   offset="0.0475" />
		<stop
   id="stop10"
   style="stop-color:#5FADCA"
   offset="0.1158" />
		<stop
   id="stop12"
   style="stop-color:#49A2C2"
   offset="0.1943" />
		<stop
   id="stop14"
   style="stop-color:#3899BD"
   offset="0.2859" />
		<stop
   id="stop16"
   style="stop-color:#2D93B9"
   offset="0.3993" />
		<stop
   id="stop18"
   style="stop-color:#2690B7"
   offset="0.5584" />
		<stop
   id="stop20"
   style="stop-color:#248FB6"
   offset="1" />
	</linearGradient>
	
</defs><sodipodi:namedview
   pagecolor="#ffffff"
   bordercolor="#666666"
   borderopacity="1"
   objecttolerance="10"
   gridtolerance="10"
   guidetolerance="10"
   inkscape:pageopacity="0"
   inkscape:pageshadow="2"
   inkscape:window-width="1280"
   inkscape:window-height="723"
   id="namedview26"
   showgrid="false"
   inkscape:zoom="9.1785714"
   inkscape:cx="14"
   inkscape:cy="14"
   inkscape:window-x="0"
   inkscape:window-y="24"
   inkscape:window-maximized="1"
   inkscape:current-layer="Layer_1" />
<path
   inkscape:connector-curvature="0"
   style="fill:#248fb6;fill-opacity:1"
   id="path22"
   d="m 28,25 c 0,1.65 -1.35,3 -3,3 H 3 C 1.35,28 0,26.65 0,25 V 3 C 0,1.35 1.35,0 3,0 h 22 c 1.65,0 3,1.35 3,3 v 22 z" />
<path
   d="M23.865,18.658c-0.187-0.438-0.728-0.933-1.165-1.194l-8.143-4.886v-0.775c0-0.026-0.001-0.053-0.005-0.078  c-0.036-0.282-0.27-0.807-0.92-0.979c-0.543-0.146-0.922-0.653-0.922-1.237c0-0.711,0.578-1.289,1.29-1.289  c0.711,0,1.289,0.578,1.289,1.289c0,0.342,0.277,0.619,0.619,0.619s0.619-0.277,0.619-0.619c0-1.394-1.133-2.527-2.527-2.527  s-2.527,1.134-2.527,2.527c0,1.134,0.745,2.127,1.847,2.438v0.634l-8.023,4.862c-0.437,0.265-0.976,0.765-1.163,1.211  c-0.177,0.421-0.178,1.041-0.002,1.471c0.238,0.588,0.987,0.896,1.605,0.896h16.529c0.617,0,1.367-0.308,1.605-0.895  C24.045,19.692,24.043,19.075,23.865,18.658z M22.742,19.625c-0.045,0.055-0.25,0.156-0.477,0.156H5.736  c-0.227,0-0.431-0.102-0.458-0.122c-0.052-0.127-0.053-0.408-0.003-0.527c0.047-0.109,0.335-0.432,0.662-0.63l8.003-4.851  l8.123,4.874c0.327,0.196,0.616,0.513,0.664,0.62C22.772,19.25,22.778,19.523,22.742,19.625z"
   id="path24"
   style="fill:#ffffff;fill-opacity:1" />
</svg>