<?xml version="1.0" encoding="utf-8"?>
<!-- Generator: Adobe Illustrator 14.0.0, SVG Export Plug-In . SVG Version: 6.00 Build 43363)  -->
<!DOCTYPE svg PUBLIC "-//W3C//DTD SVG 1.1//EN" "http://www.w3.org/Graphics/SVG/1.1/DTD/svg11.dtd">
<svg version="1.1" id="Layer_1" xmlns="http://www.w3.org/2000/svg" xmlns:xlink="http://www.w3.org/1999/xlink" x="0px" y="0px"
	 width="30px" height="30px" viewBox="-291 381 30 30" enable-background="new -291 381 30 30" xml:space="preserve">
<g>
	<polygon points="-277.863,393.429 -277.863,394.842 -276.706,395.999 -277.863,397.156 -277.863,398.571 -275.999,396.706 
		-274.131,398.573 -274.131,397.16 -275.292,395.999 -274.131,394.838 -274.131,393.423 -275.999,395.292 	"/>
	<rect x="-277.863" y="399.618" width="3.732" height="1.002"/>
	<polygon points="-274.131,391.38 -277.863,391.38 -280.619,391.38 -280.619,391.88 -280.619,400.618 -280.619,400.62 
		-280.119,400.62 -277.863,400.62 -277.189,400.119 -277.863,399.618 -278.91,399.618 -277.863,398.571 -277.393,397.531 
		-277.863,397.156 -279.619,398.913 -279.619,393.087 -277.863,394.842 -277.56,394.548 -277.863,393.429 -278.912,392.38 
		-277.863,392.38 -274.131,392.38 -273.088,392.38 -274.131,393.423 -274.466,394.419 -274.131,394.838 -272.381,393.087 
		-272.381,398.909 -274.131,397.16 -274.651,397.438 -274.131,398.573 -273.086,399.618 -274.131,399.618 -274.503,400.119 
		-274.131,400.62 -271.381,400.62 -271.381,391.88 -271.381,391.38 	"/>
</g>
</svg>
