<?xml version="1.0" encoding="UTF-8" standalone="no"?>
<!-- Created with Inkscape (http://www.inkscape.org/) -->

<svg
   xmlns:dc="http://purl.org/dc/elements/1.1/"
   xmlns:cc="http://creativecommons.org/ns#"
   xmlns:rdf="http://www.w3.org/1999/02/22-rdf-syntax-ns#"
   xmlns:svg="http://www.w3.org/2000/svg"
   xmlns="http://www.w3.org/2000/svg"
   version="1.1"
   width="16"
   height="16"
   viewBox="0 0 16 16"
   id="svg2985"
   xml:space="preserve"><metadata
   id="metadata3001"><rdf:RDF><cc:Work
       rdf:about=""><dc:format>image/svg+xml</dc:format><dc:type
         rdf:resource="http://purl.org/dc/dcmitype/StillImage" /><dc:title></dc:title></cc:Work></rdf:RDF></metadata><defs
   id="defs2999">
	

		
		
		
	</defs>
<g
   id="Layer_1">
</g>
<path
   d="m 15.238618,12.91255 c 0,1.252 -1.014,2.266 -2.266,2.266 H 3.1276183 c -1.252,0 -2.26799998,-1.014 -2.26799998,-2.266 V 3.0685496 c 0,-1.254 1.01599998,-2.26999998 2.26799998,-2.26999998 h 9.8459997 c 1.252,0 2.266,1.01599998 2.266,2.26999998 V 12.91255 z"
   id="path2993"
   style="fill:#1884c3" /><path
   d="m 4.7929618,3.1364809 c 0.692,-0.117 1.663,-0.206 3.033,-0.206 1.383,0 2.3830002,0.265 3.0460002,0.811 0.633,0.485 1.045,1.31 1.045,2.28 0,0.986 -0.31,1.811 -0.897,2.354 -0.767,0.707 -1.9150002,1.045 -3.2390002,1.045 -0.295,0 -0.56,-0.015 -0.766,-0.059 v 3.5620001 h -2.222 V 3.1364809 z m 2.222,4.504 c 0.191,0.044 0.427,0.059 0.75,0.059 1.192,0 1.929,-0.604 1.929,-1.604 0,-0.912 -0.619,-1.456 -1.751,-1.456 -0.457,0 -0.766,0.028 -0.928,0.072 v 2.929 z"
   id="path2995"
   style="fill:#ffffff" />
</svg>