<?xml version="1.0" encoding="utf-8"?>
<!-- Generator: Adobe Illustrator 15.0.1, SVG Export Plug-In . SVG Version: 6.00 Build 0)  -->
<!DOCTYPE svg PUBLIC "-//W3C//DTD SVG 1.1//EN" "http://www.w3.org/Graphics/SVG/1.1/DTD/svg11.dtd">
<svg version="1.1" xmlns="http://www.w3.org/2000/svg" xmlns:xlink="http://www.w3.org/1999/xlink" x="0px" y="0px" width="16px"
	 height="16px" viewBox="0 0 16 16" enable-background="new 0 0 16 16" xml:space="preserve">
<g id="Layer_1">
</g>
<g id="POI">
	<g>
		<path d="M15.689,13.424c0,1.252-1.014,2.266-2.266,2.266H3.578c-1.252,0-2.268-1.014-2.268-2.266V3.58
			c0-1.254,1.016-2.27,2.268-2.27h9.846c1.252,0,2.266,1.016,2.266,2.27V13.424z"/>
		<path fill="#1884C3" d="M14.689,12.424c0,1.252-1.014,2.266-2.266,2.266H2.578c-1.252,0-2.268-1.014-2.268-2.266V2.58
			c0-1.254,1.016-2.27,2.268-2.27h9.846c1.252,0,2.266,1.016,2.266,2.27V12.424z"/>
		<path fill="#FFFFFF" d="M3.938,2.709C4.63,2.592,5.601,2.503,6.971,2.503c1.383,0,2.383,0.265,3.046,0.811
			c0.633,0.485,1.045,1.31,1.045,2.28c0,0.986-0.31,1.811-0.897,2.354C9.398,8.655,8.25,8.993,6.926,8.993
			c-0.295,0-0.56-0.015-0.766-0.059v3.562H3.938V2.709z M6.16,7.213c0.191,0.044,0.427,0.059,0.75,0.059
			c1.192,0,1.929-0.604,1.929-1.604c0-0.912-0.619-1.456-1.751-1.456c-0.457,0-0.766,0.028-0.928,0.072V7.213z"/>
	</g>
</g>
</svg>
