<?xml version="1.0" encoding="UTF-8" standalone="no"?>
<!-- Generator: Adobe Illustrator 15.0.1, SVG Export Plug-In . SVG Version: 6.00 Build 0)  -->

<svg
   xmlns:dc="http://purl.org/dc/elements/1.1/"
   xmlns:cc="http://creativecommons.org/ns#"
   xmlns:rdf="http://www.w3.org/1999/02/22-rdf-syntax-ns#"
   xmlns:svg="http://www.w3.org/2000/svg"
   xmlns="http://www.w3.org/2000/svg"
   xmlns:sodipodi="http://sodipodi.sourceforge.net/DTD/sodipodi-0.dtd"
   xmlns:inkscape="http://www.inkscape.org/namespaces/inkscape"
   version="1.1"
   id="Layer_1"
   x="0px"
   y="0px"
   width="28px"
   height="28px"
   viewBox="0 0 28 28"
   enable-background="new 0 0 28 28"
   xml:space="preserve"
   inkscape:version="0.48.0 r9654"
   sodipodi:docname="parking.svg"><metadata
   id="metadata3915"><rdf:RDF><cc:Work
       rdf:about=""><dc:format>image/svg+xml</dc:format><dc:type
         rdf:resource="http://purl.org/dc/dcmitype/StillImage" /><dc:title></dc:title></cc:Work></rdf:RDF></metadata><defs
   id="defs3913">
	<linearGradient
   y2="28"
   x2="14"
   y1="0"
   x1="14"
   gradientUnits="userSpaceOnUse"
   id="SVGID_1_">
		<stop
   id="stop3891"
   style="stop-color:#91C7DA"
   offset="0" />
		<stop
   id="stop3893"
   style="stop-color:#7ABBD3"
   offset="0.0475" />
		<stop
   id="stop3895"
   style="stop-color:#5FADCA"
   offset="0.1158" />
		<stop
   id="stop3897"
   style="stop-color:#49A2C2"
   offset="0.1943" />
		<stop
   id="stop3899"
   style="stop-color:#3899BD"
   offset="0.2859" />
		<stop
   id="stop3901"
   style="stop-color:#2D93B9"
   offset="0.3993" />
		<stop
   id="stop3903"
   style="stop-color:#2690B7"
   offset="0.5584" />
		<stop
   id="stop3905"
   style="stop-color:#248FB6"
   offset="1" />
	</linearGradient>
	
</defs><sodipodi:namedview
   pagecolor="#ffffff"
   bordercolor="#666666"
   borderopacity="1"
   objecttolerance="10"
   gridtolerance="10"
   guidetolerance="10"
   inkscape:pageopacity="0"
   inkscape:pageshadow="2"
   inkscape:window-width="1280"
   inkscape:window-height="723"
   id="namedview3911"
   showgrid="false"
   inkscape:zoom="9.1785714"
   inkscape:cx="-6.1011673"
   inkscape:cy="14"
   inkscape:window-x="0"
   inkscape:window-y="24"
   inkscape:window-maximized="1"
   inkscape:current-layer="Layer_1" />
<path
   inkscape:connector-curvature="0"
   style="fill:#248fb6;fill-opacity:1"
   id="path3907"
   d="m 28,25 c 0,1.65 -1.35,3 -3,3 H 3 C 1.35,28 0,26.65 0,25 V 3 C 0,1.35 1.35,0 3,0 h 22 c 1.65,0 3,1.35 3,3 v 22 z" />
<path
   d="M14.805,13.709c1.661,0,3.004-1.346,3.004-3.002c0-1.66-1.344-3.006-3.004-3.006l-4.426-0.006v6.014H14.805z   M14.748,4c3.743,0,6.78,3.039,6.78,6.779c0,3.754-3.037,6.788-6.78,6.788l-4.369-0.005V24H6.472V4H14.748z"
   id="path3909"
   style="fill:#ffffff;fill-opacity:1" />
</svg>
