<?xml version="1.0" encoding="UTF-8" standalone="no"?>
<!-- Generator: Adobe Illustrator 15.0.1, SVG Export Plug-In . SVG Version: 6.00 Build 0)  -->

<svg
   xmlns:dc="http://purl.org/dc/elements/1.1/"
   xmlns:cc="http://creativecommons.org/ns#"
   xmlns:rdf="http://www.w3.org/1999/02/22-rdf-syntax-ns#"
   xmlns:svg="http://www.w3.org/2000/svg"
   xmlns="http://www.w3.org/2000/svg"
   xmlns:sodipodi="http://sodipodi.sourceforge.net/DTD/sodipodi-0.dtd"
   xmlns:inkscape="http://www.inkscape.org/namespaces/inkscape"
   version="1.1"
   id="Layer_1"
   x="0px"
   y="0px"
   width="28px"
   height="28px"
   viewBox="0 0 28 28"
   enable-background="new 0 0 28 28"
   xml:space="preserve"
   inkscape:version="0.48.0 r9654"
   sodipodi:docname="pharmacy.svg"><metadata
   id="metadata30"><rdf:RDF><cc:Work
       rdf:about=""><dc:format>image/svg+xml</dc:format><dc:type
         rdf:resource="http://purl.org/dc/dcmitype/StillImage" /><dc:title></dc:title></cc:Work></rdf:RDF></metadata><defs
   id="defs28">
	<linearGradient
   y2="28"
   x2="14"
   y1="0"
   x1="14"
   gradientUnits="userSpaceOnUse"
   id="SVGID_1_">
		<stop
   id="stop6"
   style="stop-color:#91C7DA"
   offset="0" />
		<stop
   id="stop8"
   style="stop-color:#7ABBD3"
   offset="0.0475" />
		<stop
   id="stop10"
   style="stop-color:#5FADCA"
   offset="0.1158" />
		<stop
   id="stop12"
   style="stop-color:#49A2C2"
   offset="0.1943" />
		<stop
   id="stop14"
   style="stop-color:#3899BD"
   offset="0.2859" />
		<stop
   id="stop16"
   style="stop-color:#2D93B9"
   offset="0.3993" />
		<stop
   id="stop18"
   style="stop-color:#2690B7"
   offset="0.5584" />
		<stop
   id="stop20"
   style="stop-color:#248FB6"
   offset="1" />
	</linearGradient>
	
</defs><sodipodi:namedview
   pagecolor="#ffffff"
   bordercolor="#666666"
   borderopacity="1"
   objecttolerance="10"
   gridtolerance="10"
   guidetolerance="10"
   inkscape:pageopacity="0"
   inkscape:pageshadow="2"
   inkscape:window-width="734"
   inkscape:window-height="480"
   id="namedview26"
   showgrid="false"
   inkscape:zoom="9.1785714"
   inkscape:cx="14"
   inkscape:cy="14"
   inkscape:window-x="0"
   inkscape:window-y="24"
   inkscape:window-maximized="0"
   inkscape:current-layer="Layer_1" />
<path
   inkscape:connector-curvature="0"
   style="fill:#248fb6;fill-opacity:1"
   id="path22"
   d="m 28,25 c 0,1.65 -1.35,3 -3,3 H 3 C 1.35,28 0,26.65 0,25 V 3 C 0,1.35 1.35,0 3,0 h 22 c 1.65,0 3,1.35 3,3 v 22 z" />
<path
   d="M4,19.986V8.014h5.088c1.279,0,2.209,0.107,2.789,0.322c0.58,0.216,1.044,0.598,1.393,1.147  s0.523,1.179,0.523,1.887c0,0.898-0.264,1.641-0.792,2.226c-0.528,0.585-1.317,0.954-2.368,1.106  c0.522,0.305,0.954,0.64,1.294,1.005c0.34,0.364,0.799,1.013,1.376,1.943l1.462,2.336h-2.891l-1.748-2.605  c-0.621-0.931-1.045-1.518-1.274-1.76c-0.229-0.242-0.471-0.408-0.727-0.498s-0.662-0.135-1.217-0.135h-0.49v4.998H4z M6.417,13.077  h1.788c1.16,0,1.884-0.049,2.172-0.147c0.289-0.098,0.515-0.267,0.678-0.506c0.163-0.239,0.245-0.539,0.245-0.898  c0-0.403-0.107-0.729-0.322-0.976c-0.215-0.248-0.519-0.404-0.911-0.47c-0.196-0.027-0.784-0.041-1.764-0.041H6.417V13.077z   M14.951,19.986l3.128-4.468l-2.997-4.206h2.801l1.535,2.385l1.617-2.385h2.695l-2.94,4.108L24,19.986h-2.817l-1.764-2.688  l-1.78,2.688H14.951z"
   id="path24"
   style="fill:#ffffff;fill-opacity:1" />
</svg>