<?xml version="1.0" encoding="utf-8"?>
<!-- Generator: Adobe Illustrator 15.0.1, SVG Export Plug-In . SVG Version: 6.00 Build 0)  -->
<!DOCTYPE svg PUBLIC "-//W3C//DTD SVG 1.1//EN" "http://www.w3.org/Graphics/SVG/1.1/DTD/svg11.dtd">
<svg version="1.1" id="Layer_1" xmlns="http://www.w3.org/2000/svg" xmlns:xlink="http://www.w3.org/1999/xlink" x="0px" y="0px"
	 width="30px" height="30px" viewBox="0 0 30 30" enable-background="new 0 0 30 30" xml:space="preserve">
<g>
	<path fill="#40423D" d="M19.5,15.002c-3.56,0.164-4.332,0.939-4.499,4.498C15.322,17.47,17.47,15.324,19.5,15.002z"/>
	<path fill="#40423D" d="M19.5,15.002c-2.032-0.321-4.179-2.471-4.5-4.502C15.167,14.062,15.94,14.836,19.5,15.002z"/>
	<path fill="#40423D" d="M10.5,14.999c3.56-0.166,4.333-0.938,4.5-4.499C14.679,12.53,12.531,14.677,10.5,14.999z"/>
	<path fill="#40423D" d="M15.001,19.5c-0.166-3.56-0.939-4.333-4.501-4.501C12.531,15.32,14.679,17.47,15.001,19.5z"/>
</g>
</svg>
