<?xml version="1.0" encoding="UTF-8" standalone="no"?>
<!-- Generator: Adobe Illustrator 15.0.1, SVG Export Plug-In . SVG Version: 6.00 Build 0)  -->

<svg
   xmlns:dc="http://purl.org/dc/elements/1.1/"
   xmlns:cc="http://creativecommons.org/ns#"
   xmlns:rdf="http://www.w3.org/1999/02/22-rdf-syntax-ns#"
   xmlns:svg="http://www.w3.org/2000/svg"
   xmlns="http://www.w3.org/2000/svg"
   xmlns:sodipodi="http://sodipodi.sourceforge.net/DTD/sodipodi-0.dtd"
   xmlns:inkscape="http://www.inkscape.org/namespaces/inkscape"
   version="1.1"
   id="Layer_1"
   x="0px"
   y="0px"
   width="28px"
   height="28px"
   viewBox="0 0 28 28"
   enable-background="new 0 0 28 28"
   xml:space="preserve"
   inkscape:version="0.48.0 r9654"
   sodipodi:docname="pub-bar.svg"><metadata
   id="metadata32"><rdf:RDF><cc:Work
       rdf:about=""><dc:format>image/svg+xml</dc:format><dc:type
         rdf:resource="http://purl.org/dc/dcmitype/StillImage" /><dc:title></dc:title></cc:Work></rdf:RDF></metadata><defs
   id="defs30">
	<linearGradient
   y2="28"
   x2="14"
   y1="0"
   x1="14"
   gradientUnits="userSpaceOnUse"
   id="SVGID_1_">
		<stop
   id="stop6"
   style="stop-color:#FFD080"
   offset="0" />
		<stop
   id="stop8"
   style="stop-color:#FFCD76"
   offset="0.0155" />
		<stop
   id="stop10"
   style="stop-color:#FFC257"
   offset="0.075" />
		<stop
   id="stop12"
   style="stop-color:#FFB83B"
   offset="0.1424" />
		<stop
   id="stop14"
   style="stop-color:#FFB025"
   offset="0.2185" />
		<stop
   id="stop16"
   style="stop-color:#FFA914"
   offset="0.3074" />
		<stop
   id="stop18"
   style="stop-color:#FFA509"
   offset="0.4174" />
		<stop
   id="stop20"
   style="stop-color:#FFA302"
   offset="0.5717" />
		<stop
   id="stop22"
   style="stop-color:#FFA200"
   offset="1" />
	</linearGradient>
	
</defs><sodipodi:namedview
   pagecolor="#ffffff"
   bordercolor="#666666"
   borderopacity="1"
   objecttolerance="10"
   gridtolerance="10"
   guidetolerance="10"
   inkscape:pageopacity="0"
   inkscape:pageshadow="2"
   inkscape:window-width="734"
   inkscape:window-height="480"
   id="namedview28"
   showgrid="false"
   inkscape:zoom="9.1785714"
   inkscape:cx="14"
   inkscape:cy="14"
   inkscape:window-x="0"
   inkscape:window-y="24"
   inkscape:window-maximized="0"
   inkscape:current-layer="Layer_1" />
<path
   inkscape:connector-curvature="0"
   style="fill:#ffa200;fill-opacity:1"
   id="path24"
   d="m 28,25 c 0,1.65 -1.35,3 -3,3 H 3 C 1.35,28 0,26.65 0,25 V 3 C 0,1.35 1.35,0 3,0 h 22 c 1.65,0 3,1.35 3,3 v 22 z" />
<path
   d="M20.108,21.571h-4.802V14.71L23.979,4H4.021l8.83,10.659v6.912H8.132c-1.624,0-1.624,2.429,0,2.429h11.976  C21.731,24,21.718,21.571,20.108,21.571z M14.044,10.008c0-0.853,0.692-1.547,1.548-1.547s1.548,0.694,1.548,1.547  c0,0.858-0.692,1.549-1.548,1.549S14.044,10.866,14.044,10.008z"
   id="path26"
   style="fill:#ffffff;fill-opacity:1" />
</svg>