<?xml version="1.0" encoding="utf-8"?>
<!-- Generator: Adobe Illustrator 14.0.0, SVG Export Plug-In . SVG Version: 6.00 Build 43363)  -->
<!DOCTYPE svg PUBLIC "-//W3C//DTD SVG 1.1//EN" "http://www.w3.org/Graphics/SVG/1.1/DTD/svg11.dtd">
<svg version="1.1" id="Layer_1" xmlns="http://www.w3.org/2000/svg" xmlns:xlink="http://www.w3.org/1999/xlink" x="0px" y="0px"
	 width="30px" height="30px" viewBox="-291 381 30 30" enable-background="new -291 381 30 30" xml:space="preserve">
<polygon fill="#35342F" points="-277.638,395.455 -276.599,392.888 -276.288,392.888 -276.288,391.149 -280.503,391.149 
	-280.503,392.888 -278.536,392.888 -279.571,395.455 -282.788,395.455 -282.788,397.19 -280.278,397.19 -281.751,400.851 
	-279.688,400.851 -278.214,397.19 -276.288,397.19 -276.288,395.455 "/>
<polygon fill="#35342F" points="-272.317,400.851 -270.256,400.851 -271.742,397.19 -269.212,397.19 -269.212,395.455 
	-272.446,395.455 -273.483,392.888 -271.491,392.888 -271.491,391.149 -277.218,391.149 -276.599,392.888 -275.675,392.888 
	-274.638,395.455 -276.765,395.455 -276.765,397.19 -273.804,397.19 "/>
</svg>
