<?xml version="1.0" encoding="UTF-8" standalone="no"?>
<!-- Created with Inkscape (http://www.inkscape.org/) -->

<svg
   xmlns:dc="http://purl.org/dc/elements/1.1/"
   xmlns:cc="http://creativecommons.org/ns#"
   xmlns:rdf="http://www.w3.org/1999/02/22-rdf-syntax-ns#"
   xmlns:svg="http://www.w3.org/2000/svg"
   xmlns="http://www.w3.org/2000/svg"
   version="1.0"
   width="16"
   height="16"
   id="svg2">
  <defs
     id="defs9680" />
  <rect
     width="16"
     height="16"
     rx="1.6"
     ry="1.6"
     x="0"
     y="0"
     id="rect5571"
     style="fill:#ffffff;fill-opacity:1;stroke:none" />
  <rect
     width="15"
     height="15"
     rx="1.5"
     ry="1.5"
     x="0.5"
     y="0.5"
     id="rect5573"
     style="fill:#646464;fill-opacity:1;stroke:none" />
  <path
     d="M 7.9751396,1.2413601 A 0.42476725,0.42476725 0 0 0 7.5888621,1.5060613 L 6.4964327,4.091913 H 7.418992 L 8.0242704,2.6589156 8.6312778,4.091913 H 9.5538372 L 8.4579128,1.5060613 A 0.42476725,0.42476725 0 0 0 8.0216217,1.2439444 0.42476725,0.42476725 0 0 0 7.9750844,1.2411853 z M 3.535524,11.651538 2.634495,13.831246 a 0.42476725,0.42476725 0 1 0 0.7846215,0.324197 L 4.4537883,11.651538 H 3.535524 z m 8.002289,0 0.168141,0.272463 0.920812,2.231396 A 0.42488001,0.42488001 0 1 0 13.412252,13.8312 l -0.901029,-2.179708 h -0.973419 z"
     id="path3526"
     style="text-indent:0;text-transform:none;block-progression:tb;opacity:0.75;color:#000000;fill:#ffffff" />
  <path
     d="m 2.0219446,3.7058333 c -0.011209,0.00958 -0.021668,0.020041 -0.03125,0.03125 -0.058647,0.034754 -0.1039678,0.091404 -0.125,0.15625 -5.751e-4,0.010406 -5.751e-4,0.020844 0,0.03125 -0.0023,0.020748 -0.0023,0.041752 0,0.0625 l 0,7.5624997 c 6.702e-4,0.04332 0.011454,0.08646 0.03125,0.125 0.014295,0.035 0.035687,0.06709 0.0625,0.09375 0.044208,0.03591 0.099471,0.05802 0.15625,0.0625 0.010406,5.75e-4 0.020844,5.75e-4 0.03125,0 l 11.7026394,0.03556 c 0.03276,-0.0048 0.06465,-0.01546 0.09375,-0.03125 0.02201,-0.0078 0.04306,-0.01831 0.0625,-0.03125 0.01121,-0.0096 0.02167,-0.02004 0.03125,-0.03125 0.01121,-0.0096 0.02167,-0.02004 0.03125,-0.03125 0.01294,-0.01944 0.02346,-0.04049 0.03125,-0.0625 0.01579,-0.0291 0.02642,-0.06099 0.03125,-0.09375 l 0,-7.5625001 c -6.7e-4,-0.043323 -0.01145,-0.086458 -0.03125,-0.125 -0.02703,-0.053484 -0.07152,-0.097969 -0.125,-0.125 -0.0291,-0.01579 -0.06099,-0.026421 -0.09375,-0.03125 -0.01041,-5.751e-4 -0.02084,-5.751e-4 -0.03125,0 L 2.1469446,3.7058333 c -0.030961,-0.0052 -0.062789,-0.0052 -0.09375,0 -0.010406,-5.751e-4 -0.020844,-5.751e-4 -0.03125,0 z m 0.78125,1.96875 1.125,0 c 0.1849993,0.3364844 0.346637,0.6945172 0.53125,1.03125 0.2123791,-0.3365857 0.443687,-0.6947564 0.65625,-1.03125 l 1.125,0 c -0.3809891,0.5878039 -0.7752884,1.1934644 -1.15625,1.78125 0.4121765,0.656727 0.8371614,1.312446 1.25,1.96875 l -1.125,0 c -0.2417729,-0.395392 -0.4783566,-0.791225 -0.71875,-1.1875 -0.2352981,0.394895 -0.4816585,0.793662 -0.71875,1.1875 l -1.0625,0 c 0.3865809,-0.645865 0.7706991,-1.290945 1.15625,-1.9375 -0.266044,-0.4530115 -0.5451684,-0.891787 -0.8125,-1.34375 z m 6.9311116,0 1.0312498,0 c 0.2457,0.7268086 0.503408,1.4609305 0.75,2.1875 0.230967,-0.7269006 0.456975,-1.4604707 0.6875,-2.1875 l 1.03125,0 -1.0625,3 c -0.217511,0.444321 -0.250708,0.951547 -0.4375,1.4062497 -0.234793,0.62119 -1.24904,1.037428 -1.8738888,0.825417 -0.05252,-0.212471 -0.06266,-0.487407 -0.09375,-0.71875 -0.08314,-0.22577 0.108529,-0.148425 0.2499998,-0.125 0.311873,0.07542 1.014281,-0.1447567 1.061389,-0.5129167 -0.347473,-1.227903 -0.840427,-2.4130085 -1.2499998,-3.625 z m -2.215556,0.1206944 0.9375,0 0,1.25 1.2499995,0 0,0.90625 -1.2499995,0 0,1.25 -0.9375,0 0,-1.25 -1.25,0 0,-0.90625 0.65625,0 c 0.1795914,-0.040651 0.5279081,0.091827 0.59375,-0.0625 z"
     id="rect3530"
     style="fill:#ffffff" />
</svg>
