<?xml version="1.0" encoding="utf-8"?>
<!-- Generator: Adobe Illustrator 14.0.0, SVG Export Plug-In . SVG Version: 6.00 Build 43363)  -->
<!DOCTYPE svg PUBLIC "-//W3C//DTD SVG 1.1//EN" "http://www.w3.org/Graphics/SVG/1.1/DTD/svg11.dtd">
<svg version="1.1" id="Layer_1" xmlns="http://www.w3.org/2000/svg" xmlns:xlink="http://www.w3.org/1999/xlink" x="0px" y="0px"
	 width="30px" height="30px" viewBox="0 0 30 30" enable-background="new 0 0 30 30" xml:space="preserve">
<path fill="#FFFFFF" stroke="#282324" stroke-width="0.5" d="M9.68,6.239c0.95,0.99,1.852,1.631,2.664,1.631
	c0.884,0,2.207-0.641,2.648-1.631c0.439,0.99,1.8,1.631,2.681,1.631c0.815,0,1.714-0.641,2.646-1.631l3.206,2.908
	c-0.477,0.2-1.136,1.411-1.152,2.35c0,1.059,1.646,2.486,1.646,5.191c0,3.629-2.562,6.502-4.499,6.502
	c-0.862,0-1.339-0.15-1.729-0.318c-0.406-0.152-0.713-0.32-0.984-0.32c-0.527,0-1.271,0.572-1.814,1.211
	c-0.544-0.639-1.273-1.211-1.799-1.211c-0.271,0-0.578,0.168-0.986,0.32c-0.389,0.168-0.879,0.318-1.729,0.318
	c-1.936,0-4.497-2.873-4.497-6.502c0-2.705,1.646-4.132,1.646-5.191c0-0.939-0.661-2.15-1.138-2.35L9.68,6.239z"/>
</svg>
