<?xml version="1.0" encoding="UTF-8" standalone="no"?>
<!-- Created with Inkscape (http://www.inkscape.org/) -->

<svg
   xmlns:dc="http://purl.org/dc/elements/1.1/"
   xmlns:cc="http://creativecommons.org/ns#"
   xmlns:rdf="http://www.w3.org/1999/02/22-rdf-syntax-ns#"
   xmlns:svg="http://www.w3.org/2000/svg"
   xmlns="http://www.w3.org/2000/svg"
   version="1.0"
   width="16"
   height="16"
   id="svg2">
  <defs
     id="defs3066" />
  <rect
     width="16"
     height="16"
     rx="1.6"
     ry="1.6"
     x="0"
     y="0"
     id="rect4042"
     style="fill:#ffffff;fill-opacity:1;stroke:none" />
  <rect
     width="15.048038"
     height="15.048038"
     rx="1.5"
     ry="1.5"
     x="0.47598124"
     y="0.47598124"
     id="rect4040"
     style="fill:#646464;fill-opacity:1;stroke:none" />
  <path
     d="M 13.997954,9.5894961 C 13.440327,10.560445 10.989129,11.29142 8.0489339,11.29142 c -2.939121,0 -5.3902212,-0.729985 -5.9490198,-1.7004099 -0.044325,0.108236 -0.069526,0.224415 -0.069526,0.349729 0,0.4177129 0.2780945,0.7400859 0.619102,0.9737999 0.3410163,0.233714 0.7842572,0.416466 1.3184,0.57132 1.0683571,0.309698 2.4997146,0.492931 4.0810268,0.492931 1.581223,0 3.0113281,-0.183233 4.0796861,-0.492931 0.534187,-0.154854 0.978724,-0.337606 1.31974,-0.57132 0.341016,-0.233722 0.620442,-0.556095 0.620442,-0.9737999 0,-0.125974 -0.0261,-0.242515 -0.07086,-0.351235 z"
     id="path8348"
     style="text-indent:0;text-transform:none;block-progression:tb;color:#000000;fill:#ffffff;stroke:none" />
  <path
     d="M 1.5150437,5.4394316 A 0.36859995,0.36741656 0 0 0 1.2420805,5.8815728 L 1.9927294,10.234963 A 0.36859995,0.36741656 0 1 0 2.709258,10.09892 L 1.958609,5.7455294 A 0.36859995,0.36741656 0 0 0 1.5150437,5.4394316 z"
     id="path8386"
     style="font-size:medium;font-style:normal;font-variant:normal;font-weight:normal;font-stretch:normal;text-indent:0;text-align:start;text-decoration:none;line-height:normal;letter-spacing:normal;word-spacing:normal;text-transform:none;direction:ltr;block-progression:tb;writing-mode:lr-tb;text-anchor:start;baseline-shift:baseline;color:#000000;fill:#ffffff;fill-opacity:1;fill-rule:nonzero;stroke:none;stroke-width:0.67511487;marker:none;visibility:visible;display:inline;overflow:visible;enable-background:accumulate;font-family:Sans;-inkscape-font-specification:Sans" />
  <path
     d="m 14.446678,5.4394316 a 0.36859995,0.36741656 0 0 0 -0.204723,0.1360435 0.36859995,0.36741656 0 0 0 -0.06824,0.1700543 L 13.354826,10.09892 a 0.36859995,0.36741656 0 0 0 0.03412,0.238076 0.36859995,0.36741656 0 0 0 0.682408,-0.102033 l 0.81889,-4.3533902 A 0.36859995,0.36741656 0 0 0 14.446678,5.4394316 z"
     id="path8390"
     style="font-size:medium;font-style:normal;font-variant:normal;font-weight:normal;font-stretch:normal;text-indent:0;text-align:start;text-decoration:none;line-height:normal;letter-spacing:normal;word-spacing:normal;text-transform:none;direction:ltr;block-progression:tb;writing-mode:lr-tb;text-anchor:start;baseline-shift:baseline;color:#000000;fill:#ffffff;fill-opacity:1;fill-rule:nonzero;stroke:none;stroke-width:0.67511487;marker:none;visibility:visible;display:inline;overflow:visible;enable-background:accumulate;font-family:Sans;-inkscape-font-specification:Sans" />
  <path
     d="m 10.167655,10.643224 v 1.710462 c 0,0.190233 -0.2461262,0.343379 -0.5518416,0.343379 H 6.6704463 c -0.3057243,0 -0.55185,-0.153146 -0.55185,-0.343379 v -1.710462 c 0.3726602,-1.8601888 4.0644497,-1.6009141 4.0490667,0 z"
     id="rect8396"
     style="fill:#ffffff;stroke:none" />
  <path
     d="m 9.2603759,3.9089428 -0.136482,2.1086735 c -0.335354,-0.013233 -0.660213,-0.00119 -0.989492,0 -0.3230018,0.00408 -0.6561048,0.014047 -0.9894911,0.034011 L 7.0084292,3.9429537 6.3942618,4.0449863 6.8037067,6.085638 C 6.2571295,6.1208762 5.7668572,6.1755992 5.2682884,6.2556923 L 4.4152783,4.4191058 3.6646293,4.5891601 4.9270844,6.3237141 C 4.4113414,6.4172204 3.8877291,6.5268989 3.3575457,6.6638227 5.1266131,7.0972941 7.1016688,7.2597071 8.9191719,7.2079965 10.244543,7.1556143 11.667998,6.919198 12.94538,6.5617901 12.438976,6.4287408 11.905286,6.3035459 11.375841,6.2216815 l 1.296575,-1.8365866 -0.784769,-0.034011 -0.85301,1.8365866 C 10.513135,6.1174133 9.9887589,6.0464332 9.4650979,6.0176163 l 0.443566,-2.0406518 z"
     id="path8448"
     style="fill:#919191;fill-opacity:1;stroke:none" />
  <path
     d="m 8.0551909,3.5500098 c -1.8159847,0 -3.4589583,0.2043093 -4.685938,0.5496467 C 2.755763,4.2723252 2.2466513,4.476011 1.8550544,4.7366174 1.4634129,4.9972239 1.1432453,5.3558163 1.1432453,5.8215871 c 0,0.4657707 0.3201676,0.8243631 0.7118091,1.0849695 0.3916416,0.2606065 0.900798,0.4657175 1.5141985,0.6383855 1.2269797,0.345338 2.8699533,0.549647 4.685938,0.549647 1.815983,0 3.4589561,-0.204309 4.6859361,-0.549647 0.61349,-0.172668 1.124032,-0.377779 1.515718,-0.6383855 0.391641,-0.2606154 0.711808,-0.6192077 0.711808,-1.0849695 0,-0.4657798 -0.320167,-0.824372 -0.711808,-1.0849697 C 13.865203,4.476011 13.354617,4.2723252 12.741127,4.0996565 11.514147,3.7543191 9.8711739,3.5500098 8.0551909,3.5500098 z m 0,0.9160778 c 1.74333,0 3.3231221,0.202697 4.4287441,0.5138641 0.552794,0.1555837 0.986141,0.3418724 1.246729,0.5152894 0.260606,0.173417 0.302554,0.2912315 0.302554,0.326355 0,0.035097 -0.04192,0.1543629 -0.302554,0.3277799 -0.260605,0.1734171 -0.693971,0.3597147 -1.246729,0.5152983 -1.105622,0.3111672 -2.6853261,0.5138552 -4.4287441,0.5138552 -1.7433311,0 -3.3216938,-0.202688 -4.4272267,-0.5138552 C 3.0751798,6.5090907 2.6403036,6.3227931 2.3797156,6.149376 2.1191098,5.975959 2.0786185,5.8567194 2.0786185,5.8215961 c 0,-0.035097 0.040483,-0.152938 0.3010971,-0.326355 C 2.6403214,5.3218241 3.0751531,5.1355354 3.6279642,4.9799517 4.7335864,4.6687846 6.3118598,4.4660876 8.0551909,4.4660876 z"
     id="path8399"
     style="text-indent:0;text-transform:none;block-progression:tb;color:#000000;fill:#ffffff;stroke:none" />
</svg>
