<?xml version="1.0" encoding="utf-8"?>
<!-- Generator: Adobe Illustrator 15.0.1, SVG Export Plug-In . SVG Version: 6.00 Build 0)  -->
<!DOCTYPE svg PUBLIC "-//W3C//DTD SVG 1.1//EN" "http://www.w3.org/Graphics/SVG/1.1/DTD/svg11.dtd">
<svg version="1.1" id="Layer_1" xmlns="http://www.w3.org/2000/svg" xmlns:xlink="http://www.w3.org/1999/xlink" x="0px" y="0px"
	 width="30px" height="30px" viewBox="0 0 30 30" enable-background="new 0 0 30 30" xml:space="preserve">
<g>
	<path d="M18.969,17.207v-5.34l-0.627-0.5c0,0-0.062-0.872-0.062-1.372c0-0.328,0.062-0.563-0.251-0.75
		c-0.445-0.269-0.812-0.437-1.561-0.562c-0.748-0.126-1.243-0.201-1.476-0.201c-0.234,0-0.748,0.088-1.447,0.204
		c-0.749,0.125-1.115,0.296-1.562,0.562c-0.312,0.187-0.25,0.422-0.25,0.75c0,0.498-0.062,1.374-0.062,1.374l-0.625,0.498v5.34
		l0.595,0.41h6.726L18.969,17.207z"/>
	<path fill="#FFFFFF" d="M18.016,16.451c0,0.363-0.295,0.658-0.657,0.658c-0.365,0-0.658-0.295-0.658-0.658s0.293-0.658,0.658-0.658
		C17.721,15.793,18.016,16.088,18.016,16.451z"/>
	<polygon fill="#FFFFFF" points="15.622,9.478 17.691,9.813 17.691,11.153 15.622,10.756 	"/>
	<circle fill="#FFFFFF" cx="15.043" cy="12.584" r="0.95"/>
	<polygon fill="#FFFFFF" points="12.334,9.813 14.404,9.478 14.404,10.756 12.334,11.153 	"/>
	<circle fill="#FFFFFF" cx="12.73" cy="16.451" r="0.658"/>
	<polygon points="12.375,20.734 12.978,19.652 12.992,19.652 15.275,19.652 15.275,19.242 13.205,19.242 13.834,18.113 
		14.771,18.113 15.043,17.398 11.641,17.621 12.358,18.115 12.897,18.115 11,21.518 11.938,21.516 12.149,21.145 12.351,21.145 
		15.275,21.145 15.275,20.734 	"/>
	<polygon points="17.103,18.111 17.656,18.111 18.367,17.621 14.404,17.355 14.771,18.113 16.166,18.111 16.795,19.242 
		14.771,19.242 14.771,19.652 17.01,19.652 17.023,19.652 17.625,20.734 14.771,20.734 14.771,21.145 17.648,21.145 17.852,21.145 
		18.062,21.516 19,21.518 	"/>
</g>
</svg>
