<?xml version="1.0" encoding="utf-8"?>
<!-- Generator: Adobe Illustrator 14.0.0, SVG Export Plug-In . SVG Version: 6.00 Build 43363)  -->
<!DOCTYPE svg PUBLIC "-//W3C//DTD SVG 1.1//EN" "http://www.w3.org/Graphics/SVG/1.1/DTD/svg11.dtd">
<svg version="1.1" id="Layer_1" xmlns="http://www.w3.org/2000/svg" xmlns:xlink="http://www.w3.org/1999/xlink" x="0px" y="0px"
	 width="30px" height="30px" viewBox="0 0 30 30" enable-background="new 0 0 30 30" xml:space="preserve">
<path d="M19.986,10.229c-0.15-0.744-0.625-1.043-1.342-1.34c-0.717-0.299-2.393-0.656-3.643-0.656c-1.252,0-2.93,0.357-3.646,0.656
	c-0.715,0.297-1.191,0.596-1.342,1.34l-0.537,4.133v3.145v2.551h0.928v0.893c0,1.088,1.594,1.088,1.594,0v-0.893h3.004h3.004v0.893
	c0,0.014,0.007,0.021,0.007,0.035c0.039,1.033,1.539,1.033,1.578,0c0-0.014,0.007-0.021,0.007-0.035v-0.893h0.926v-2.551v-3.145
	L19.986,10.229z"/>
<path fill="#FFFFFF" d="M12.502,9.147h2.5h2.496c0.492,0,0.492,0.93,0,0.93h-2.496h-2.5C12.012,10.077,12.012,9.147,12.502,9.147z"
	/>
<path fill="#FFFFFF" d="M10.455,14.243l0.439-3.26c0.037-0.203,0.219-0.359,0.432-0.359h3.676h3.684
	c0.213,0,0.395,0.156,0.432,0.359l0.438,3.26c0.008,0.037,0.016,0.074,0.016,0.117c0,0.238-0.199,0.438-0.439,0.438h-4.129h-4.121
	c-0.24,0-0.439-0.199-0.439-0.438C10.441,14.317,10.449,14.28,10.455,14.243z"/>
<path fill="#FFFFFF" d="M11.199,18.349c-0.461,0-0.838-0.375-0.838-0.842c0-0.463,0.377-0.838,0.838-0.838
	c0.465,0,0.842,0.375,0.842,0.838C12.041,17.974,11.664,18.349,11.199,18.349z"/>
<path fill="#FFFFFF" d="M18.801,18.349c-0.465,0-0.842-0.375-0.842-0.842c0-0.463,0.377-0.838,0.842-0.838
	c0.463,0,0.84,0.375,0.84,0.838C19.641,17.974,19.264,18.349,18.801,18.349z"/>
</svg>
