<?xml version="1.0" encoding="UTF-8" standalone="no"?>
<!-- Created with Inkscape (http://www.inkscape.org/) -->

<svg
   xmlns:dc="http://purl.org/dc/elements/1.1/"
   xmlns:cc="http://creativecommons.org/ns#"
   xmlns:rdf="http://www.w3.org/1999/02/22-rdf-syntax-ns#"
   xmlns:svg="http://www.w3.org/2000/svg"
   xmlns="http://www.w3.org/2000/svg"
   version="1.0"
   width="16"
   height="16"
   id="svg2">
  <defs
     id="defs12048" />
  <rect
     width="16"
     height="16"
     rx="1.6"
     ry="1.6"
     x="0"
     y="0"
     id="rect5571"
     style="fill:#ffffff;fill-opacity:1;stroke:none" />
  <rect
     width="15"
     height="15"
     rx="1.5"
     ry="1.5"
     x="0.5"
     y="0.5"
     id="rect5573"
     style="fill:#646464;fill-opacity:1;stroke:none" />
  <path
     d="M 8.0531902,1.2409679 5.5345463,1.24286 c -1.1730783,-3e-7 -2.0361251,0.9420272 -2.0361251,1.9684059 l 0,7.2699791 c 9e-7,0.994365 0.7779323,1.809926 1.5602286,1.935996 l -2.3460651,3.519021 1.3542327,0 1.6775396,-2.459561 2.2974195,0 0.00191,0 0.00191,0 2.2974195,0 1.677539,2.459561 1.354233,0 -2.346065,-3.519021 c 0.782296,-0.126055 1.561175,-0.941631 1.561175,-1.935996 l 0,-7.2699791 C 12.589891,2.1848872 11.7259,1.24286 10.552821,1.24286 L 8.0530987,1.24097 z m -0.9973256,0.6929339 0.986095,0 0.00191,0 0.00191,0 0.986095,0 c 0.1784749,0 0.333805,0.1495928 0.333805,0.3280677 l 0,0.5779483 c 0,0.1784749 -0.1468156,0.3318824 -0.333805,0.3318824 l -0.986095,0 -0.00191,0 -0.00191,0 -0.986095,0 c -0.1869711,0 -0.333805,-0.1534075 -0.333805,-0.3318824 l 0,-0.5779483 c 0,-0.1784749 0.1553148,-0.3280677 0.333805,-0.3280677 z m -1.4534159,1.8624862 2.4395414,0 0.00381,0 2.4395409,0 c 0.662911,0 1.014721,0.4746146 1.014721,1.0185355 l 0,1.3084559 c 0.0052,0.6289133 -0.453801,1.0147208 -1.014721,1.0147208 l -2.4395409,0 -0.00191,0 -0.00191,0 -2.4395414,0 c -0.5609194,0 -1.0198784,-0.3858075 -1.0147209,-1.0147208 l 0,-1.3084559 c 0,-0.5439209 0.3518106,-1.0185355 1.0147209,-1.0185355 z M 5.4918212,9.5713835 c 0.4931086,-9e-7 0.8935952,0.3995406 0.8935952,0.8926495 0,0.493047 -0.4005172,0.892649 -0.8935952,0.892649 C 4.9987126,11.356681 4.599172,10.957111 4.599172,10.464033 4.5991708,9.9709241 4.9987126,9.5713835 5.4918212,9.5713835 z m 5.0830648,0 c 0.493109,-6e-7 0.892649,0.3995406 0.892649,0.8926495 0,0.493078 -0.39954,0.892649 -0.892649,0.892649 -0.493109,-10e-7 -0.8926492,-0.399571 -0.8926492,-0.892649 -6e-7,-0.4931089 0.3995402,-0.8926495 0.8926492,-0.8926495 z"
     id="path3578"
     style="fill:#ffffff" />
</svg>
