<?xml version="1.0" encoding="UTF-8" standalone="no"?>
<!-- Created with Inkscape (http://www.inkscape.org/) -->

<svg
   xmlns:dc="http://purl.org/dc/elements/1.1/"
   xmlns:cc="http://creativecommons.org/ns#"
   xmlns:rdf="http://www.w3.org/1999/02/22-rdf-syntax-ns#"
   xmlns:svg="http://www.w3.org/2000/svg"
   xmlns="http://www.w3.org/2000/svg"
   version="1.0"
   width="16"
   height="16"
   id="svg2">
  <defs
     id="defs5537" />
  <rect
     width="16"
     height="16"
     rx="1.6"
     ry="1.6"
     x="0"
     y="0"
     id="rect5571"
     style="fill:#ffffff;fill-opacity:1;stroke:none" />
  <rect
     width="15"
     height="15"
     rx="1.5"
     ry="1.5"
     x="0.5"
     y="0.5"
     id="rect5573"
     style="fill:#646464;fill-opacity:1;stroke:none" />
  <path
     d="M 7.7322128,4.0372048 1.7423077,7.0402124 9.2072572,7.1401387 14.645448,4.3096144 7.7322128,4.0371887 z"
     id="path2662"
     style="fill:#ffffff;fill-rule:evenodd;stroke:#ffffff;stroke-width:0.24099523;stroke-linecap:round;stroke-linejoin:round" />
  <path
     d="M 4.462946,10.063842 5.1101693,8.1548066 9.6205277,8.2832019 12.623601,6.6511518 13.82504,8.04378 c 0,0 -1.516774,0.1668971 -2.177753,0.5767877 -0.66094,0.4098827 -1.51822,1.3967213 -1.51822,1.3967213 0,0 -1.8665192,-0.6454435 -2.7296283,-0.6599388 -1.6479074,-0.02769 -2.8341498,0.6843718 -2.9365008,0.7064518 z"
     id="path2664"
     style="fill:#ffffff;fill-rule:evenodd;stroke:#ffffff;stroke-width:0.24099523;stroke-linecap:round;stroke-linejoin:round" />
  <path
     d="M 3.8989646,8.0701995 3.1746041,8.0807143 C 3.0735315,8.2488951 3.00072,8.4600648 2.9228432,8.7112772 2.8106269,9.0732674 2.7156567,9.5070283 2.6597778,9.9392879 2.4492386,11.568128 2.4487241,12.321548 2.4487241,12.321548 h 0.4824085 c 0,0 -8.041e-4,-0.709967 0.2072908,-2.320538 C 3.1906844,9.596962 3.2808626,9.1842619 3.3833905,8.8535017 3.4859264,8.5227576 3.6288802,8.2630534 3.665302,8.2274571 3.750624,8.1440651 3.8248827,8.1022081 3.8733406,8.0807219 c 0.010774,-0.00482 0.018814,-0.00802 0.025648,-0.010515 z"
     id="path2666"
     style="fill:#ffffff;fill-rule:evenodd" />
  <path
     d="m 3.2235927,11.754231 c 0,0.315591 -0.3530587,1.149594 -0.6692051,1.149594 -0.3161384,0 -0.4762336,-0.834003 -0.4762336,-1.149594 0,-0.315598 0.2565769,-0.571731 0.5727153,-0.571731 0.3161464,0 0.5727234,0.256133 0.5727234,0.571731 z"
     id="path3462"
     style="fill:#ffffff;stroke:#ffffff;stroke-width:0.37293208;stroke-linejoin:round" />
  <path
     d="M 2.6366624,11.874625 2.3294727,13.190281 2.6366624,11.874625 z"
     id="path3466"
     style="fill:none;stroke:#ffffff;stroke-width:0.24099523;stroke-linecap:round;stroke-linejoin:round" />
  <path
     d="M 3.2235927,11.866598 2.7943939,13.277446 3.2235927,11.866598 z"
     id="path3468"
     style="fill:none;stroke:#ffffff;stroke-width:0.24099523;stroke-linecap:round;stroke-linejoin:round" />
  <path
     d="M 2.0095314,11.738179 1.9061512,13.019724 2.0095314,11.738179 z"
     id="path3471"
     style="fill:none;stroke:#ffffff;stroke-width:0.24133545;stroke-linecap:round;stroke-linejoin:round;stroke-miterlimit:4;stroke-dasharray:none" />
  <path
     d="m 2.2426954,11.842519 -0.10338,1.281546 0.10338,-1.281546 z"
     id="path3482"
     style="fill:none;stroke:#ffffff;stroke-width:0.24099523;stroke-linecap:round;stroke-linejoin:round" />
  <path
     d="M 2.8778666,11.922782 2.5706769,13.238439 2.8778666,11.922782 z"
     id="path3484"
     style="fill:none;stroke:#ffffff;stroke-width:0.24099523;stroke-linecap:round;stroke-linejoin:round" />
</svg>
