<?xml version="1.0" encoding="UTF-8" standalone="no"?>
<!-- Created with Inkscape (http://www.inkscape.org/) -->

<svg
   xmlns:dc="http://purl.org/dc/elements/1.1/"
   xmlns:cc="http://creativecommons.org/ns#"
   xmlns:rdf="http://www.w3.org/1999/02/22-rdf-syntax-ns#"
   xmlns:svg="http://www.w3.org/2000/svg"
   xmlns="http://www.w3.org/2000/svg"
   version="1.0"
   width="16"
   height="16"
   id="svg2">
  <defs
     id="defs4908" />
  <rect
     width="16"
     height="16"
     rx="1.6"
     ry="1.6"
     x="0"
     y="0"
     id="rect4930"
     style="fill:#ffffff;fill-opacity:1;stroke:none" />
  <rect
     width="15"
     height="15"
     rx="1.5"
     ry="1.5"
     x="0.5"
     y="0.5"
     id="rect4932"
     style="fill:#646464;fill-opacity:1;stroke:none" />
  <path
     d="M 9.0939204,6.4620578 9.8945272,9.5944981"
     id="path4817"
     style="fill:#d53b3b;stroke:#ffffff;stroke-width:3.16476226;stroke-linecap:round;stroke-linejoin:round" />
  <path
     d="M 8.8729144,5.9064144 5.7962654,6.3445147 3.9933476,4.2015286"
     id="path5329"
     style="fill:none;stroke:#ffffff;stroke-width:1.39047694;stroke-linecap:round;stroke-linejoin:round" />
  <path
     d="m 11.132087,13.031725 -4.2550204,0.04592"
     id="path5331"
     style="fill:none;stroke:#ffffff;stroke-width:1.76152706;stroke-linecap:round;stroke-linejoin:round" />
  <path
     d="M 10.567294,10.016542 6.9057974,12.725958"
     id="path5333"
     style="fill:none;stroke:#ffffff;stroke-width:1.92362118;stroke-linecap:round;stroke-linejoin:round" />
  <path
     d="M 7.7842553,2.8667177 C 7.3816233,2.8849396 7.2231129,3.4646391 7.5561362,3.6857199 7.8594628,3.9354735 8.3615721,3.6327703 8.2791859,3.2462549 8.2428427,3.0145761 8.0186853,2.8405535 7.7842553,2.8667095 z"
     id="path5339"
     style="fill:#ffffff;stroke:#ffffff;stroke-width:1.92362118;stroke-linecap:round;stroke-linejoin:round" />
  <path
     d="M 10.215322,9.7468915 6.9065341,12.727101"
     id="path4057"
     style="fill:none;stroke:#ffffff;stroke-width:1.92362118;stroke-linecap:round;stroke-linejoin:round" />
  <path
     d="M 8.8729144,6.1515511 5.7962654,6.3445147 3.9933476,4.2015286"
     id="path4059"
     style="fill:none;stroke:#ffffff;stroke-width:1.39047694;stroke-linecap:round;stroke-linejoin:round" />
</svg>
