<?xml version="1.0" encoding="UTF-8" standalone="no"?>
<!-- Generator: Adobe Illustrator 15.0.1, SVG Export Plug-In . SVG Version: 6.00 Build 0)  -->

<svg
   xmlns:dc="http://purl.org/dc/elements/1.1/"
   xmlns:cc="http://creativecommons.org/ns#"
   xmlns:rdf="http://www.w3.org/1999/02/22-rdf-syntax-ns#"
   xmlns:svg="http://www.w3.org/2000/svg"
   xmlns="http://www.w3.org/2000/svg"
   xmlns:sodipodi="http://sodipodi.sourceforge.net/DTD/sodipodi-0.dtd"
   xmlns:inkscape="http://www.inkscape.org/namespaces/inkscape"
   version="1.1"
   id="Layer_1"
   x="0px"
   y="0px"
   width="28px"
   height="28px"
   viewBox="0 0 28 28"
   enable-background="new 0 0 28 28"
   xml:space="preserve"
   inkscape:version="0.48.0 r9654"
   sodipodi:docname="wifi.svg"><metadata
   id="metadata30"><rdf:RDF><cc:Work
       rdf:about=""><dc:format>image/svg+xml</dc:format><dc:type
         rdf:resource="http://purl.org/dc/dcmitype/StillImage" /><dc:title></dc:title></cc:Work></rdf:RDF></metadata><defs
   id="defs28">
	<linearGradient
   y2="28"
   x2="14"
   y1="0"
   x1="14"
   gradientUnits="userSpaceOnUse"
   id="SVGID_1_">
		<stop
   id="stop6"
   style="stop-color:#91C7DA"
   offset="0" />
		<stop
   id="stop8"
   style="stop-color:#7ABBD3"
   offset="0.0475" />
		<stop
   id="stop10"
   style="stop-color:#5FADCA"
   offset="0.1158" />
		<stop
   id="stop12"
   style="stop-color:#49A2C2"
   offset="0.1943" />
		<stop
   id="stop14"
   style="stop-color:#3899BD"
   offset="0.2859" />
		<stop
   id="stop16"
   style="stop-color:#2D93B9"
   offset="0.3993" />
		<stop
   id="stop18"
   style="stop-color:#2690B7"
   offset="0.5584" />
		<stop
   id="stop20"
   style="stop-color:#248FB6"
   offset="1" />
	</linearGradient>
	
</defs><sodipodi:namedview
   pagecolor="#ffffff"
   bordercolor="#666666"
   borderopacity="1"
   objecttolerance="10"
   gridtolerance="10"
   guidetolerance="10"
   inkscape:pageopacity="0"
   inkscape:pageshadow="2"
   inkscape:window-width="1280"
   inkscape:window-height="723"
   id="namedview26"
   showgrid="false"
   inkscape:zoom="9.1785714"
   inkscape:cx="14"
   inkscape:cy="14"
   inkscape:window-x="0"
   inkscape:window-y="24"
   inkscape:window-maximized="1"
   inkscape:current-layer="Layer_1" />
<path
   inkscape:connector-curvature="0"
   style="fill:#248fb6;fill-opacity:1"
   id="path22"
   d="m 28,25 c 0,1.65 -1.35,3 -3,3 H 3 C 1.35,28 0,26.65 0,25 V 3 C 0,1.35 1.35,0 3,0 h 22 c 1.65,0 3,1.35 3,3 v 22 z" />
<path
   d="M15.309,12.483c0,0.709-0.575,1.283-1.284,1.283s-1.284-0.574-1.284-1.283s0.575-1.284,1.284-1.284  S15.309,11.774,15.309,12.483L15.309,12.483z M16.556,15.007c-0.098,0-0.194-0.036-0.27-0.109c-0.152-0.148-0.155-0.392-0.008-0.544  c0.027-0.029,0.587-0.638,0.588-1.799c-0.001-1.165-0.581-1.791-0.587-1.798c-0.148-0.152-0.146-0.396,0.007-0.546  c0.152-0.148,0.396-0.145,0.545,0.008c0.033,0.033,0.802,0.839,0.806,2.328c0,0,0,0.002,0,0.004c0,0,0,0.002,0,0.004  s0,0.002,0,0.004s0,0.002,0,0.004c-0.004,1.488-0.773,2.295-0.806,2.328C16.756,14.968,16.656,15.007,16.556,15.007z M18.933,17.075  c-0.097,0-0.194-0.037-0.27-0.109c-0.152-0.149-0.155-0.393-0.007-0.545c0.019-0.02,1.282-1.369,1.285-3.865  c-0.003-2.503-1.272-3.852-1.285-3.865c-0.147-0.153-0.144-0.397,0.009-0.545C18.817,7.997,19.06,8,19.208,8.152  c0.061,0.063,1.496,1.565,1.503,4.39c0,0.002,0,0.004,0,0.004c0,0.004,0,0.007,0,0.01c0,0.002,0,0.006,0,0.008s0,0.004,0,0.006  c-0.007,2.824-1.442,4.326-1.503,4.389C19.133,17.036,19.033,17.075,18.933,17.075z M21.524,19.141c-0.097,0-0.194-0.037-0.27-0.109  c-0.152-0.148-0.155-0.393-0.007-0.545c0.028-0.029,1.977-2.099,1.981-5.932c-0.004-3.861-1.961-5.911-1.98-5.932  c-0.149-0.152-0.146-0.396,0.006-0.545c0.153-0.148,0.396-0.146,0.545,0.006c0.09,0.092,2.189,2.291,2.2,6.452c0,0,0,0.003,0,0.005  c0,0.005,0,0.01,0,0.014s0,0.008,0,0.013c0,0.002,0,0.004,0,0.005c-0.011,4.161-2.11,6.36-2.2,6.452  C21.725,19.102,21.625,19.141,21.524,19.141z M11.373,15.007c-0.101,0-0.201-0.039-0.276-0.116c-0.033-0.033-0.802-0.84-0.806-2.328  c0-0.002,0-0.002,0-0.004s0-0.002,0-0.004s0-0.003,0-0.003c0-0.003,0-0.004,0-0.004c0.004-1.49,0.773-2.296,0.806-2.329  c0.149-0.152,0.393-0.156,0.545-0.008c0.152,0.148,0.155,0.392,0.008,0.544c-0.027,0.028-0.587,0.638-0.588,1.8  c0.001,1.164,0.581,1.791,0.587,1.797c0.148,0.152,0.146,0.396-0.007,0.546C11.566,14.971,11.469,15.007,11.373,15.007z   M9.066,17.075c-0.1,0-0.2-0.039-0.275-0.117c-0.062-0.062-1.496-1.564-1.503-4.389c0-0.002,0-0.004,0-0.006s0-0.006,0-0.008  c0-0.003,0-0.006,0-0.009c0,0,0-0.003,0-0.005c0.007-2.824,1.441-4.326,1.503-4.39C8.94,8,9.184,7.997,9.336,8.145  S9.492,8.538,9.344,8.69c-0.019,0.02-1.282,1.368-1.285,3.865c0.003,2.503,1.272,3.852,1.285,3.865  c0.147,0.153,0.144,0.396-0.009,0.545C9.26,17.038,9.163,17.075,9.066,17.075z M6.475,19.141c-0.1,0-0.2-0.039-0.275-0.116  c-0.09-0.092-2.189-2.291-2.2-6.452c0-0.001,0-0.003,0-0.005c0-0.005,0-0.009,0-0.013s0-0.009,0-0.014c0-0.002,0-0.004,0-0.004  c0.011-4.162,2.11-6.361,2.2-6.453C6.348,5.932,6.592,5.93,6.745,6.079S6.9,6.471,6.752,6.624l0,0  c-0.02,0.02-1.977,2.09-1.981,5.932c0.004,3.842,1.961,5.911,1.981,5.932c0.148,0.152,0.145,0.396-0.008,0.545  C6.669,19.104,6.572,19.141,6.475,19.141z M16.064,19.464l-0.571-1.929c-0.193-0.654-0.514-1.971-1.541-1.971  s-1.369,1.312-1.54,1.971l-0.574,1.928l-0.707,2.373c0.821,0.123,1.784,0.194,2.814,0.194c1.033,0,2-0.071,2.821-0.194  L16.064,19.464z"
   id="path24"
   style="fill:#ffffff;fill-opacity:1" />
</svg>