<?xml version="1.0" encoding="utf-8"?>
<!-- Generator: Adobe Illustrator 14.0.0, SVG Export Plug-In . SVG Version: 6.00 Build 43363)  -->
<!DOCTYPE svg PUBLIC "-//W3C//DTD SVG 1.1//EN" "http://www.w3.org/Graphics/SVG/1.1/DTD/svg11.dtd">
<svg version="1.1" id="Layer_1" xmlns="http://www.w3.org/2000/svg" xmlns:xlink="http://www.w3.org/1999/xlink" x="0px" y="0px"
	 width="30px" height="30px" viewBox="-291 381 30 30" enable-background="new -291 381 30 30" xml:space="preserve">
<path fill-rule="evenodd" clip-rule="evenodd" fill="#37332F" d="M-276.021,402.634h0.045l0.223-2.461l0.312,0.535l2.148-0.156
	v-1.031c0-0.178-0.066-0.355-0.18-0.379l-2.191-0.201l0.426-4.115h3.354l3.402-0.693v-1.053c0-0.201-0.111-0.268-0.293-0.291
	l-3.195-0.27h-3.156c-0.066-1.252-0.111-2.102-0.158-2.213c-0.088-0.113-0.312-0.156-0.422-0.156
	c-0.113-0.338-0.158-0.783-0.291-0.783c-0.135,0-0.18,0.445-0.293,0.783c-0.111,0-0.334,0.043-0.402,0.156
	c-0.066,0.111-0.111,0.961-0.18,2.213h-3.152l-3.203,0.27c-0.178,0.023-0.289,0.09-0.289,0.291v1.053l3.4,0.693h3.357l0.426,4.115
	l-2.193,0.201c-0.111,0.023-0.18,0.201-0.18,0.379v1.031l2.148,0.156l0.314-0.535L-276.021,402.634z"/>
</svg>
