<?xml version="1.0" encoding="UTF-8" standalone="no"?>
<!-- Created with Inkscape (http://www.inkscape.org/) -->

<svg
   xmlns:dc="http://purl.org/dc/elements/1.1/"
   xmlns:cc="http://creativecommons.org/ns#"
   xmlns:rdf="http://www.w3.org/1999/02/22-rdf-syntax-ns#"
   xmlns:svg="http://www.w3.org/2000/svg"
   xmlns="http://www.w3.org/2000/svg"
   version="1.1"
   width="30"
   height="30"
   viewBox="-291 381 30 30"
   id="Layer_1"
   xml:space="preserve"><metadata
   id="metadata2996"><rdf:RDF><cc:Work
       rdf:about=""><dc:format>image/svg+xml</dc:format><dc:type
         rdf:resource="http://purl.org/dc/dcmitype/StillImage" /><dc:title></dc:title></cc:Work></rdf:RDF></metadata><defs
   id="defs2994" />


<g
   transform="matrix(0.76746469,0,0,0.8039301,-63.632413,76.606531)"
   id="g3085"
   style="fill:#333333"><path
     d="m -275.84731,404.17466 c 0.7593,-0.30134 1.11364,-0.25962 1.73712,0.0387 0.6243,0.29903 1.24862,0.29903 1.98598,-0.0456 0.73653,-0.34307 1.33638,-0.14681 1.66962,0.0379 0.27841,0.15454 0.55682,0.21558 0.97359,0.21558 v -0.84609 c -0.62769,7.7e-4 -0.89766,-0.19472 -0.89766,-0.19472 -0.64793,-0.36702 -1.24272,-0.2944 -2.0577,0.0958 -0.46655,0.22021 -1.20476,0.16303 -1.72699,-0.0866 -0.72134,-0.34384 -1.12883,-0.25962 -1.88476,0.0479 -0.58466,0.23877 -1.11194,0.23722 -1.69576,0 -0.75509,-0.3083 -1.14317,-0.39252 -1.86366,-0.0479 -0.52392,0.24958 -1.27225,0.30676 -1.7388,0.0866 -0.81751,-0.39022 -1.40049,-0.46284 -2.04843,-0.0958 0,0 -0.28009,0.19472 -0.89597,0.19472 v 0.84609 c 0.38893,0 0.6918,-0.0688 0.95419,-0.21558 0.33155,-0.18621 0.95081,-0.38093 1.68733,-0.0379 0.73652,0.34384 1.36084,0.34384 1.98599,0.0456 0.62432,-0.29826 0.97022,-0.35235 1.72868,-0.0517 0.73483,0.34384 1.46292,0.31216 2.08723,0.0131 z"
     id="path2986"
     style="fill:#333333" /><path
     d="m -278.00518,390.16143 0,1.3125 -1.6875,0 0,0.96875 -1.21875,0 0,1.84375 -0.625,0.25 c -0.37836,0.14442 -0.56425,0.44997 -0.40625,0.78125 l 1.0625,2.125 0,3 c -0.67523,0 -1.2397,-0.73841 -2.46875,-0.125 0,0 -0.37405,0.17558 -0.90625,0.1875 l 0,0.9375 c 0.41579,-0.0275 0.62235,-0.0922 0.9375,-0.25 0.33429,-0.16825 0.96154,-0.33129 1.6875,0 0.72596,0.33202 1.3213,0.32017 1.9375,0.0312 0.61536,-0.28809 1.17372,-0.29039 1.75,-0.0312 0.72346,0.33276 1.26739,0.32747 2,0 0.58957,-0.26799 1.1363,-0.2569 1.75,0.0312 0.61535,0.28959 1.24196,0.30144 1.96875,-0.0312 0.72596,-0.33129 1.3178,-0.16229 1.65625,0 0.29686,0.14294 0.51175,0.22246 0.9375,0.25 l 0,-0.9375 c -0.54217,-0.0126 -0.875,-0.1875 -0.875,-0.1875 -1.25567,-0.61267 -1.82559,0.125 -2.5,0.125 l 0,-3 1.0625,-2.125 c 0.15717,-0.33128 0.003,-0.63683 -0.375,-0.78125 l -0.65625,-0.25 0,-1.84375 -1.21875,0 0,-0.96875 -1.6875,0 0,-1.3125 -1.0625,0 -1.0625,0 z m -1.03125,1.8125 2.09375,0 2.09375,0 0,1.3125 1.375,0 0,1 -3.46875,-1.53125 -3.46875,1.53125 0,-1 1.375,0 0,-1.3125 z"
     id="path2988"
     style="fill:#333333" /></g>
</svg>