<?xml version="1.0" encoding="utf-8"?>
<!-- Generator: Adobe Illustrator 14.0.0, SVG Export Plug-In . SVG Version: 6.00 Build 43363)  -->
<!DOCTYPE svg PUBLIC "-//W3C//DTD SVG 1.1//EN" "http://www.w3.org/Graphics/SVG/1.1/DTD/svg11.dtd">
<svg version="1.1" id="Layer_1" xmlns="http://www.w3.org/2000/svg" xmlns:xlink="http://www.w3.org/1999/xlink" x="0px" y="0px"
	 width="30px" height="30px" viewBox="-291 381 30 30" enable-background="new -291 381 30 30" xml:space="preserve">
<path fill="#426091" d="M-268.427,399.135l-0.496-3.096c-0.057-0.291-0.311-0.51-0.611-0.51c-0.184,0-0.346,0.076-0.465,0.203
	l-2.289,2.146c-0.037,0.033-0.074,0.07-0.107,0.115c-0.215,0.293-0.154,0.709,0.139,0.928c0.059,0.041,0.119,0.07,0.18,0.094
	l0.574,0.193c-0.553,1.564-1.906,2.754-3.568,3.084l0.004-10.166c0.333-0.142,0.608-0.374,0.836-0.647h-1.946v-0.553
	c-0.405-0.102-0.71-0.453-0.71-0.89c0-0.439,0.305-0.789,0.71-0.89v-1.358c-1.147,0.111-2.052,1.067-2.052,2.248
	c0,0.938,0.584,1.744,1.395,2.09l0.004,10.182c-1.699-0.305-3.105-1.508-3.672-3.1l0.578-0.193c0.062-0.023,0.123-0.053,0.18-0.094
	c0.293-0.219,0.359-0.635,0.139-0.928c-0.033-0.045-0.064-0.082-0.105-0.115l-2.289-2.146c-0.115-0.127-0.281-0.203-0.461-0.203
	c-0.307,0-0.562,0.219-0.615,0.51l-0.498,3.096c-0.012,0.049-0.016,0.102-0.016,0.154c0,0.367,0.297,0.664,0.664,0.664
	c0.068,0,0.135-0.008,0.195-0.027l0.539-0.176c0.855,2.6,3.303,4.482,6.191,4.482s5.338-1.883,6.193-4.486l0.537,0.18
	c0.062,0.02,0.127,0.027,0.197,0.027c0.365,0,0.664-0.297,0.664-0.664C-268.409,399.236-268.415,399.184-268.427,399.135z"/>
<path fill="#426091" d="M-275.96,389.104c0.518,0,0.93,0.416,0.93,0.934c0,0.514-0.412,0.934-0.93,0.934
	c-0.077,0-0.146-0.026-0.218-0.044l-0.409,0.962l2.355-0.409c0.328-0.395,0.541-0.889,0.541-1.442c0-1.256-1.014-2.27-2.27-2.27
	c-0.074,0-0.145,0.015-0.218,0.021l-0.409,0.819l0.409,0.539C-276.106,389.13-276.037,389.104-275.96,389.104z"/>
</svg>
