<?xml version="1.0" encoding="utf-8"?>
<!-- Generator: Adobe Illustrator 14.0.0, SVG Export Plug-In . SVG Version: 6.00 Build 43363)  -->
<!DOCTYPE svg PUBLIC "-//W3C//DTD SVG 1.1//EN" "http://www.w3.org/Graphics/SVG/1.1/DTD/svg11.dtd">
<svg version="1.1" id="Layer_1" xmlns="http://www.w3.org/2000/svg" xmlns:xlink="http://www.w3.org/1999/xlink" x="0px" y="0px"
	 width="30px" height="30px" viewBox="0 0 30 30" enable-background="new 0 0 30 30" xml:space="preserve">
<g>
	<path fill="#646464" d="M22.883,7.479c0-1.305-1.059-2.363-2.363-2.363H9.477c-1.305,0-2.359,1.059-2.359,2.363v15.046
		c0,1.304,1.055,2.359,2.359,2.359H20.52c1.306,0,2.363-1.057,2.363-2.359V7.479z"/>
	<g>
		<path fill="#FFFFFF" d="M14.289,12.195c0,0.522-0.477,1.078-1.09,1.078v8.807c0,1.25-1.707,1.25-1.707,0v-8.807
			c-0.598,0-1.121-0.461-1.121-1.156V7.273c0-0.422,0.609-0.438,0.609,0.016v3.582h0.512h0.586h-0.043V7.262
			c0-0.401,0.57-0.418,0.57,0.017v3.594h1.09v-3.61c0-0.397,0.594-0.414,0.594,0.017V12.195z"/>
		<path fill="#FFFFFF" d="M19.629,8.402v13.674c0,1.223-1.707,1.203-1.707,0v-5.422h-0.91V8.402
			C17.012,6.484,19.629,6.484,19.629,8.402z"/>
	</g>
</g>
</svg>
