<?xml version="1.0" encoding="utf-8"?>
<!-- Generator: Adobe Illustrator 14.0.0, SVG Export Plug-In . SVG Version: 6.00 Build 43363)  -->
<!DOCTYPE svg PUBLIC "-//W3C//DTD SVG 1.1//EN" "http://www.w3.org/Graphics/SVG/1.1/DTD/svg11.dtd">
<svg version="1.1" xmlns="http://www.w3.org/2000/svg" xmlns:xlink="http://www.w3.org/1999/xlink" x="0px" y="0px" width="38px"
	 height="30px" viewBox="-4 0 38 30" enable-background="new -4 0 38 30" xml:space="preserve">
<g id="Layer_1">
</g>
<g id="Shields">
	<path fill="#FFFFFF" stroke="#000000" stroke-width="0.75" stroke-miterlimit="3.8637" d="M32.918,9.102L33,5.37L29.504,4
		c-1.448,0.681-5.549,0.777-7.598,0.777S16.446,4.681,14.999,4c-1.446,0.681-4.857,0.777-6.905,0.777
		c-2.051,0-6.153-0.097-7.6-0.777L-3,5.37l0.081,3.731c0,0.007,2.454,1.287,2.4,2.74c-0.056,1.454-2.284,3.258-2.284,3.267
		c0,6.114,14.956,10.124,17.802,10.892c2.846-0.768,17.803-4.777,17.803-10.892c0-0.009-2.229-1.812-2.285-3.267
		C30.464,10.389,32.918,9.108,32.918,9.102z"/>
</g>
</svg>
