<?xml version="1.0" encoding="UTF-8" standalone="no"?>
<!-- Created with Inkscape (http://www.inkscape.org/) -->

<svg
   xmlns:svg="http://www.w3.org/2000/svg"
   xmlns="http://www.w3.org/2000/svg"
   version="1.1"
   width="36"
   height="30"
   viewBox="0 0 36 30"
   id="Layer_1"
   xml:space="preserve"><defs
   id="defs3183">
	
	
</defs>
<path
   d="M 2.1654388,9.033 C 3.1764128,7.262 4.9069197,5.094 6.4632875,4.081 8.4150961,4.89 10.406811,5.345 12.393689,5.345 14.379358,5.345 16.01554,4.89 18,4.081 c 1.985669,0.809 3.620641,1.264 5.60631,1.264 1.990506,0 3.978594,-0.455 5.930402,-1.264 1.557578,1.013 3.288084,3.181 4.297849,4.952 H 2.1654388 z"
   id="path3177"
   style="fill:#bf2630;stroke:#ffffff;stroke-width:1.10000002;stroke-miterlimit:3.86369991;stroke-dasharray:none" /><path
   d="M 2.1642292,9.033 C 1.7845093,9.82 0.667117,11.093 0.667117,12.58 c 0,2.919 1.4318101,5.833 5.4370084,8.997 2.1997149,1.757 8.2957916,4.342 11.8946656,4.342 3.598873,0 9.69495,-2.585 11.894665,-4.342 4.006408,-3.164 5.439427,-6.078 5.439427,-8.997 0,-1.487 -1.119811,-2.76 -1.499531,-3.547 H 2.1642292 z"
   id="path3179"
   style="fill:#1954a6;stroke:#ffffff;stroke-width:1.10000002;stroke-miterlimit:3.86369991;stroke-dasharray:none" />
</svg>