<?xml version="1.0" encoding="utf-8"?>
<!-- Generator: Adobe Illustrator 15.0.1, SVG Export Plug-In . SVG Version: 6.00 Build 0)  -->
<!DOCTYPE svg PUBLIC "-//W3C//DTD SVG 1.1//EN" "http://www.w3.org/Graphics/SVG/1.1/DTD/svg11.dtd">
<svg version="1.1" id="Layer_1" xmlns="http://www.w3.org/2000/svg" xmlns:xlink="http://www.w3.org/1999/xlink" x="0px" y="0px"
	 width="30px" height="30px" viewBox="0 0 30 30" enable-background="new 0 0 30 30" xml:space="preserve">
<g>
	<path fill="#BF2630" stroke="#FFFFFF" stroke-miterlimit="3.8637" d="M4.952,8.818c0.641-1.834,1.739-4.082,2.727-5.13
		c1.239,0.838,2.502,1.309,3.764,1.309s2.299-0.471,3.558-1.309c1.261,0.838,2.3,1.309,3.559,1.309c1.263,0,2.526-0.471,3.764-1.309
		c0.989,1.049,2.088,3.296,2.729,5.13H4.952z"/>
	<path fill="#1954A6" stroke="#FFFFFF" stroke-miterlimit="3.8637" d="M4.952,8.818C4.711,9.633,4,10.952,4,12.493
		c0,3.024,0.91,6.043,3.452,9.322c1.397,1.82,5.265,4.498,7.548,4.498c2.284,0,6.153-2.678,7.55-4.498
		c2.542-3.278,3.45-6.298,3.45-9.322c0-1.541-0.71-2.86-0.951-3.675H4.952z"/>
</g>
</svg>
