<?xml version="1.0" encoding="utf-8"?>
<!-- Generator: Adobe Illustrator 14.0.0, SVG Export Plug-In . SVG Version: 6.00 Build 43363)  -->
<!DOCTYPE svg PUBLIC "-//W3C//DTD SVG 1.1//EN" "http://www.w3.org/Graphics/SVG/1.1/DTD/svg11.dtd">
<svg version="1.1" xmlns="http://www.w3.org/2000/svg" xmlns:xlink="http://www.w3.org/1999/xlink" x="0px" y="0px" width="30px"
	 height="30px" viewBox="0 0 30 30" enable-background="new 0 0 30 30" xml:space="preserve">
<g id="Layer_1">
</g>
<g id="Shields">
	<path fill="#FFFFFF" stroke="#000000" stroke-width="0.75" stroke-miterlimit="3.8637" d="M19.221,4.777
		c-1.252,0-3.337-0.097-4.222-0.777c-0.884,0.681-2.968,0.777-4.22,0.777C9.526,4.777,7.02,4.681,6.136,4L4,5.37l0.05,3.731
		c0,0.007,1.5,1.287,1.467,2.74c-0.034,1.454-1.396,3.258-1.396,3.267c0,6.114,9.14,10.124,10.878,10.892
		c1.739-0.768,10.88-4.777,10.88-10.892c0-0.009-1.362-1.812-1.396-3.267c-0.032-1.453,1.468-2.733,1.468-2.74L26,5.37L23.863,4
		C22.979,4.681,20.473,4.777,19.221,4.777z"/>
</g>
</svg>
