<?xml version="1.0" encoding="utf-8"?>
<!-- Generator: Adobe Illustrator 14.0.0, SVG Export Plug-In . SVG Version: 6.00 Build 43363)  -->
<!DOCTYPE svg PUBLIC "-//W3C//DTD SVG 1.1//EN" "http://www.w3.org/Graphics/SVG/1.1/DTD/svg11.dtd">
<svg version="1.1" id="Layer_1" xmlns="http://www.w3.org/2000/svg" xmlns:xlink="http://www.w3.org/1999/xlink" x="0px" y="0px"
	 width="30px" height="30px" viewBox="0 0 30 30" enable-background="new 0 0 30 30" xml:space="preserve">
<g>
	<path fill="#BF2630" stroke="#FFFFFF" stroke-miterlimit="3.8637" d="M1.905,9.033c0.836-1.771,2.267-3.939,3.554-4.952
		C7.073,4.89,8.72,5.345,10.363,5.345c1.642,0,2.995-0.455,4.636-1.264c1.642,0.809,2.994,1.264,4.636,1.264
		c1.646,0,3.29-0.455,4.904-1.264c1.288,1.013,2.719,3.181,3.554,4.952H1.905z"/>
	<path fill="#1954A6" stroke="#FFFFFF" stroke-miterlimit="3.8637" d="M1.905,9.033c-0.314,0.787-1.238,2.06-1.238,3.547
		c0,2.919,1.184,5.833,4.496,8.997c1.819,1.757,6.86,4.342,9.836,4.342c2.976,0,8.017-2.585,9.836-4.342
		c3.313-3.164,4.498-6.078,4.498-8.997c0-1.487-0.926-2.76-1.24-3.547H1.905z"/>
</g>
</svg>
