<?xml version="1.0" encoding="utf-8"?>
<!-- Generator: Adobe Illustrator 14.0.0, SVG Export Plug-In . SVG Version: 6.00 Build 43363)  -->
<!DOCTYPE svg PUBLIC "-//W3C//DTD SVG 1.1//EN" "http://www.w3.org/Graphics/SVG/1.1/DTD/svg11.dtd">
<svg version="1.1" id="Layer_1" xmlns="http://www.w3.org/2000/svg" xmlns:xlink="http://www.w3.org/1999/xlink" x="0px" y="0px"
	 width="30px" height="30px" viewBox="-291 381 30 30" enable-background="new -291 381 30 30" xml:space="preserve">
<path fill="#FFFFFF" stroke="#37332F" stroke-width="0.8559" d="M-284.619,385.486c1.539,1.188,3,1.957,4.316,1.957
	c1.432,0,3.576-0.769,4.289-1.957c0.713,1.188,2.916,1.957,4.344,1.957c1.32,0,2.775-0.769,4.287-1.957l5.193,3.489
	c-0.771,0.24-1.84,1.693-1.865,2.82c0,1.271,2.664,2.983,2.664,6.229c0,4.354-4.148,7.803-7.287,7.803
	c-1.396,0-2.17-0.182-2.801-0.383c-0.658-0.182-1.154-0.384-1.594-0.384c-0.855,0-2.061,0.687-2.941,1.452
	c-0.881-0.766-2.061-1.452-2.912-1.452c-0.441,0-0.938,0.202-1.598,0.384c-0.631,0.201-1.424,0.383-2.801,0.383
	c-3.135,0-7.285-3.448-7.285-7.803c0-3.246,2.666-4.959,2.666-6.229c0-1.127-1.07-2.58-1.844-2.82L-284.619,385.486z"/>
</svg>
