<?xml version="1.0" encoding="utf-8"?>
<!-- Generator: Adobe Illustrator 15.0.1, SVG Export Plug-In . SVG Version: 6.00 Build 0)  -->
<!DOCTYPE svg PUBLIC "-//W3C//DTD SVG 1.1//EN" "http://www.w3.org/Graphics/SVG/1.1/DTD/svg11.dtd">
<svg version="1.1" id="Layer_1" xmlns="http://www.w3.org/2000/svg" xmlns:xlink="http://www.w3.org/1999/xlink" x="0px" y="0px"
	 width="30px" height="30px" viewBox="0 0 30 30" enable-background="new 0 0 30 30" xml:space="preserve">
<path fill="#FFFFFF" stroke="#282324" stroke-width="0.6277" d="M8.321,4.001c1.192,1.243,2.325,2.047,3.345,2.047
	c1.109,0,2.77-0.805,3.324-2.047c0.551,1.243,2.259,2.047,3.365,2.047c1.023,0,2.151-0.805,3.321-2.047l4.025,3.65
	c-0.6,0.251-1.427,1.771-1.446,2.95c0,1.33,2.067,3.121,2.067,6.516c0,4.556-3.218,8.162-5.649,8.162
	c-1.081,0-1.68-0.188-2.17-0.398c-0.511-0.191-0.896-0.401-1.236-0.401c-0.662,0-1.595,0.718-2.276,1.521
	c-0.683-0.804-1.598-1.521-2.259-1.521c-0.34,0-0.725,0.21-1.238,0.401c-0.488,0.211-1.103,0.398-2.17,0.398
	c-2.431,0-5.646-3.606-5.646-8.162c0-3.396,2.066-5.187,2.066-6.516c0-1.179-0.83-2.699-1.428-2.95L8.321,4.001z"/>
</svg>
