<?xml version="1.0" encoding="utf-8"?>
<!-- Generator: Adobe Illustrator 14.0.0, SVG Export Plug-In . SVG Version: 6.00 Build 43363)  -->
<!DOCTYPE svg PUBLIC "-//W3C//DTD SVG 1.1//EN" "http://www.w3.org/Graphics/SVG/1.1/DTD/svg11.dtd">
<svg version="1.1" xmlns="http://www.w3.org/2000/svg" xmlns:xlink="http://www.w3.org/1999/xlink" x="0px" y="0px" width="30px"
	 height="30px" viewBox="0 0 30 30" enable-background="new 0 0 30 30" xml:space="preserve">
<g id="Layer_1">
</g>
<g id="Shields">
	<path fill="#FFFFFF" stroke="#000000" stroke-width="0.75" stroke-miterlimit="3.8637" d="M20.605,4.777
		c-1.663,0-4.432-0.097-5.606-0.777c-1.174,0.681-3.942,0.777-5.604,0.777C7.73,4.777,4.4,4.681,3.227,4L0.391,5.37l0.065,3.731
		c0,0.007,1.992,1.287,1.948,2.74c-0.045,1.454-1.854,3.258-1.854,3.267c0,6.114,12.139,10.124,14.448,10.892
		c2.31-0.768,14.449-4.777,14.449-10.892c0-0.009-1.809-1.812-1.854-3.267c-0.043-1.453,1.949-2.733,1.949-2.74l0.066-3.731
		L26.771,4C25.597,4.681,22.269,4.777,20.605,4.777z"/>
</g>
</svg>
