<?xml version="1.0" encoding="UTF-8" standalone="no"?>
<!-- Generator: Adobe Illustrator 15.0.1, SVG Export Plug-In . SVG Version: 6.00 Build 0)  -->

<svg
   xmlns:dc="http://purl.org/dc/elements/1.1/"
   xmlns:cc="http://creativecommons.org/ns#"
   xmlns:rdf="http://www.w3.org/1999/02/22-rdf-syntax-ns#"
   xmlns:svg="http://www.w3.org/2000/svg"
   xmlns="http://www.w3.org/2000/svg"
   xmlns:sodipodi="http://sodipodi.sourceforge.net/DTD/sodipodi-0.dtd"
   xmlns:inkscape="http://www.inkscape.org/namespaces/inkscape"
   version="1.1"
   id="Layer_1"
   x="0px"
   y="0px"
   width="30"
   height="40"
   viewBox="0 0 30 40"
   enable-background="new 0 0 30 30"
   xml:space="preserve"
   inkscape:version="0.48.1 r9760"
   sodipodi:docname="shield_hwy_us3_br.svg"><metadata
   id="metadata3223"><rdf:RDF><cc:Work
       rdf:about=""><dc:format>image/svg+xml</dc:format><dc:type
         rdf:resource="http://purl.org/dc/dcmitype/StillImage" /><dc:title /></cc:Work></rdf:RDF></metadata><defs
   id="defs3221" /><sodipodi:namedview
   pagecolor="#ffffff"
   bordercolor="#666666"
   borderopacity="1"
   objecttolerance="10"
   gridtolerance="10"
   guidetolerance="10"
   inkscape:pageopacity="0"
   inkscape:pageshadow="2"
   inkscape:window-width="1440"
   inkscape:window-height="1112"
   id="namedview3219"
   showgrid="false"
   inkscape:zoom="1"
   inkscape:cx="-110.5"
   inkscape:cy="16.347656"
   inkscape:window-x="173"
   inkscape:window-y="251"
   inkscape:window-maximized="0"
   inkscape:current-layer="Layer_1" />
<path
   d="m 8.321,14.001 c 1.192,1.243 2.325,2.047 3.345,2.047 1.109,0 2.77,-0.805 3.324,-2.047 0.551,1.243 2.259,2.047 3.365,2.047 1.023,0 2.151,-0.805 3.321,-2.047 l 4.025,3.65 c -0.6,0.251 -1.427,1.771 -1.446,2.95 0,1.33 2.067,3.121 2.067,6.516 0,4.556 -3.218,8.162 -5.649,8.162 -1.081,0 -1.68,-0.188 -2.17,-0.398 -0.511,-0.191 -0.896,-0.401 -1.236,-0.401 -0.662,0 -1.595,0.718 -2.276,1.521 -0.683,-0.804 -1.598,-1.521 -2.259,-1.521 -0.34,0 -0.725,0.21 -1.238,0.401 -0.488,0.211 -1.103,0.398 -2.17,0.398 -2.431,0 -5.646,-3.606 -5.646,-8.162 0,-3.396 2.066,-5.187 2.066,-6.516 0,-1.179 -0.83,-2.699 -1.428,-2.95 l 4.005,-3.65 z"
   id="path3217"
   inkscape:connector-curvature="0"
   style="fill:#ffffff;stroke:#282324;stroke-width:0.62769997" />
<g
   transform="scale(1.0688099,0.93562011)"
   style="font-size:6.76736069px;font-style:normal;font-weight:normal;line-height:125%;letter-spacing:0px;word-spacing:0px;fill:#000000;fill-opacity:1;stroke:none;font-family:Sans"
   id="text3225"><path
     d="m 10.46062,7.9312757 0,1.8074933 1.070618,0 c 0.359072,6e-7 0.624524,-0.073797 0.796354,-0.2213931 0.174027,-0.1497974 0.261042,-0.3777991 0.261046,-0.6840057 -4e-6,-0.3084066 -0.08702,-0.5353068 -0.261046,-0.6807013 C 12.155762,8.0050757 11.89031,7.9312781 11.531238,7.9312757 l -1.070618,0 m 0,-2.0288864 0,1.4869689 0.988008,0 c 0.326029,2.9e-6 0.56835,-0.060577 0.726963,-0.1817407 0.16081,-0.1233601 0.241216,-0.3106079 0.241219,-0.5617438 -3e-6,-0.2489257 -0.08041,-0.435072 -0.241219,-0.5584394 -0.158613,-0.123359 -0.400934,-0.1850406 -0.726963,-0.185045 l -0.988008,0 M 9.7931362,5.353863 l 1.7050578,0 c 0.508871,4.9e-6 0.90099,0.1057448 1.176358,0.31722 0.27536,0.2114844 0.413042,0.5121823 0.413046,0.9020945 -4e-6,0.301803 -0.0705,0.5419207 -0.21148,0.7203538 -0.14099,0.1784391 -0.348064,0.2896863 -0.621222,0.3337419 0.328231,0.070496 0.582668,0.2180912 0.763311,0.4427863 0.182838,0.2224966 0.274259,0.5011653 0.274263,0.836007 -4e-6,0.4405843 -0.149803,0.7809346 -0.449395,1.0210519 -0.2996,0.2401176 -0.725864,0.3601766 -1.278794,0.3601766 l -1.7711448,0 0,-4.933432"
     style=""
     id="path3127" /><path
     d="m 16.771977,7.9742326 c 0.143186,0.048466 0.28197,0.1520034 0.416351,0.3106113 0.136577,0.1586118 0.273158,0.3767004 0.409743,0.6542663 l 0.677397,1.3481848 -0.71705,0 -0.631136,-1.2655754 C 16.764264,8.6912837 16.605654,8.4720936 16.451452,8.3641489 16.299449,8.256208 16.091273,8.2022366 15.826925,8.2022345 l -0.726962,0 0,2.0850605 -0.667484,0 0,-4.933432 1.506795,0 c 0.563944,4.9e-6 0.984701,0.1178608 1.262272,0.3535681 0.277563,0.2357165 0.416347,0.5914872 0.416351,1.0673133 -4e-6,0.3106144 -0.0727,0.5683555 -0.218089,0.7732238 -0.143193,0.2048738 -0.35247,0.3469618 -0.627831,0.4262644 m -1.672014,-2.0718433 0,1.7513189 0.839311,0 c 0.321624,2.6e-6 0.563944,-0.073795 0.726963,-0.2213931 0.165215,-0.1497954 0.247825,-0.3689854 0.247828,-0.6575707 -3e-6,-0.2885784 -0.08261,-0.5055654 -0.247828,-0.650962 C 16.503218,5.9761913 16.260898,5.9023937 15.939274,5.9023893 l -0.839311,0"
     style=""
     id="path3129" /></g>

</svg>