<?xml version="1.0" encoding="UTF-8" standalone="no"?>
<!-- Generator: Adobe Illustrator 14.0.0, SVG Export Plug-In . SVG Version: 6.00 Build 43363)  -->

<svg
   xmlns:dc="http://purl.org/dc/elements/1.1/"
   xmlns:cc="http://creativecommons.org/ns#"
   xmlns:rdf="http://www.w3.org/1999/02/22-rdf-syntax-ns#"
   xmlns:svg="http://www.w3.org/2000/svg"
   xmlns="http://www.w3.org/2000/svg"
   xmlns:sodipodi="http://sodipodi.sourceforge.net/DTD/sodipodi-0.dtd"
   xmlns:inkscape="http://www.inkscape.org/namespaces/inkscape"
   version="1.1"
   id="Layer_1"
   x="0px"
   y="0px"
   width="30px"
   height="30px"
   viewBox="-291 381 30 30"
   enable-background="new -291 381 30 30"
   xml:space="preserve"
   inkscape:version="0.47 r22583"
   sodipodi:docname="skiing.svg"><metadata
   id="metadata3839"><rdf:RDF><cc:Work
       rdf:about=""><dc:format>image/svg+xml</dc:format><dc:type
         rdf:resource="http://purl.org/dc/dcmitype/StillImage" /></cc:Work></rdf:RDF></metadata><defs
   id="defs3837"><inkscape:perspective
     sodipodi:type="inkscape:persp3d"
     inkscape:vp_x="0 : 15 : 1"
     inkscape:vp_y="0 : 1000 : 0"
     inkscape:vp_z="30 : 15 : 1"
     inkscape:persp3d-origin="15 : 10 : 1"
     id="perspective3841" /></defs><sodipodi:namedview
   pagecolor="#ffffff"
   bordercolor="#666666"
   borderopacity="1"
   objecttolerance="10"
   gridtolerance="10"
   guidetolerance="10"
   inkscape:pageopacity="0"
   inkscape:pageshadow="2"
   inkscape:window-width="1160"
   inkscape:window-height="682"
   id="namedview3835"
   showgrid="false"
   inkscape:zoom="7.8666667"
   inkscape:cx="15"
   inkscape:cy="15"
   inkscape:window-x="0"
   inkscape:window-y="0"
   inkscape:window-maximized="0"
   inkscape:current-layer="Layer_1" />
<path
   style="fill:#426091"
   d="m -279.65413,391.40201 c -0.46613,0.27644 0.16428,1.16196 -0.3125,1.46875 -0.6747,-0.0771 -1.14635,-0.77473 -1.84375,-0.875 -0.64024,0.0635 -0.42869,0.89298 0.0625,1 0.41839,0.21754 1.02403,0.34352 1.28125,0.75 -0.11574,0.46216 -0.78509,0.34038 -0.96875,0.78125 -0.3761,0.3384 0.21279,0.78655 0.53237,0.49963 0.57956,-0.27238 1.22281,-1.07058 1.90513,-0.53088 0.19497,0.22499 1.09801,0.43012 0.6875,0.75 -0.16492,0.25263 -1.20596,0.45096 -0.53556,0.66972 0.3946,0.0848 0.79765,0.51947 0.41056,0.83028 -0.44744,0.17342 -0.76528,0.71028 -1.3125,0.4375 -0.55393,-0.15383 -0.96296,-0.87261 -1.5625,-0.71875 -0.37196,0.16706 -0.30632,0.75068 0.125,0.8125 0.31124,0.0954 1.08968,0.37231 0.63096,0.73539 -0.53168,0.32627 -1.21763,0.59538 -1.66221,0.95211 -0.16655,0.52228 0.6728,0.79853 0.9375,0.375 0.50295,-0.0969 0.96035,-0.81427 1.46875,-0.5625 0.23532,0.37502 -0.22466,1.29127 0.40625,1.375 0.74228,-0.21404 0.31905,-1.13873 0.375,-1.6875 -0.003,-0.71279 0.77293,-0.68397 1.25,-1.0625 0.62378,0.0123 0.0936,0.93712 0.3125,1.15625 0.2673,-0.27711 1.08553,-0.88362 1.1875,-0.21875 -0.12386,0.46951 0.18439,1.06835 -0.32809,1.37497 -0.41937,0.48111 -1.36389,0.34823 -1.39066,1.12503 0.2137,0.35714 0.61762,0.31544 0.89571,0.007 0.2515,-0.24675 0.8723,-0.43397 0.79179,0.12422 0.0793,0.5725 -0.19323,1.40251 0.21875,1.80625 0.4518,0.24631 0.81985,-0.34228 0.65625,-0.75 0.17677,-0.44361 -0.33044,-1.29023 0.25,-1.4375 0.41286,0.13195 0.89205,0.71006 1.34375,0.40625 0.26658,-1.02851 -1.44137,-0.77536 -1.5625,-1.65625 -0.10852,-0.50868 0.13539,-1.02442 -0.0312,-1.53125 0.49428,0.2923 0.99778,0.69226 0.43202,-0.0487 -0.21063,-0.44468 -0.46895,-1.21238 -1.11952,-0.88885 -0.61934,-0.003 -0.81735,-0.7039 -1.03125,-1.1875 0.44557,-0.3008 0.61527,-1.13365 0.0625,-1.5 -0.23966,-0.45139 -0.57131,-1.12399 -0.40625,-0.28125 -0.11016,0.63838 -0.81193,-0.0211 -1.125,-0.15625 -0.75056,-0.29588 -0.35487,-1.272 -0.40625,-1.90625 0.0358,-0.31027 -0.34796,-0.55963 -0.625,-0.4375 z m 5.09375,6.9375 c 0.0815,-0.0199 0.045,0.15421 0,0 z"
   id="polygon3831" />
<path
   style="fill:#426091"
   d="m -276.15837,388.52489 c -0.67491,0.16737 -0.32188,0.94254 -0.40625,1.45 0.0331,0.57684 0.10962,1.18011 -0.5625,0.675 -0.29879,-0.19611 -0.93834,-0.66494 -1.125,-0.125 -0.0479,0.57691 0.74459,0.65606 1.125,0.9375 0.8039,0.1186 0.4282,1.14989 0.5625,1.71875 -0.16986,0.52876 -0.75878,-0.11524 -1.0625,-0.25 0.14471,0.68127 0.39206,1.55665 1.1875,1.625 0.44216,0.007 1.12932,-0.12033 1.25,0.375 0.64375,0.4907 0.096,1.32209 -0.21875,1.84375 -0.0159,0.682 0.52316,0.95829 0.84375,1.46875 0.17171,-0.31786 -0.2011,-1.10384 0.40625,-0.90625 0.45104,0.14006 0.78876,0.50827 1.21875,0.6875 0.0593,0.63241 -0.13495,1.38088 0.125,1.9375 0.56512,0.36633 0.82524,-0.59467 0.59375,-1 -0.0426,-0.62164 0.67131,-0.28585 0.9375,-0.0625 0.37781,0.2465 0.97881,0.77681 1.375,0.3125 0.24296,-0.74927 -0.83765,-0.82576 -1.23625,-1.21625 -0.41642,-0.0487 -0.46901,-0.59371 -0.045,-0.69 0.31071,-0.12404 1.03897,-0.40351 0.65625,-0.78125 -0.29354,-0.51213 -0.81401,0.0505 -1.14059,0.21872 -0.39394,0.3228 -1.00719,0.52304 -1.41498,0.10667 -0.31328,-0.11288 -1.00676,-0.43142 -0.56943,-0.76289 0.0793,-0.26768 0.97744,-0.2031 0.625,-0.5 -0.21488,-0.21462 -0.91513,-0.35817 -0.78125,-0.625 0.41927,-0.36054 0.9536,-0.86319 1.52941,-0.83561 0.4546,0.2382 0.92666,0.62704 1.4749,0.82397 0.52495,0.0259 0.45085,-0.63355 0.0426,-0.80083 -0.2579,-0.14927 -1.03153,-0.21972 -0.67191,-0.65628 0.41051,-0.44674 1.16628,-0.4675 1.5625,-0.96875 0.30739,-0.27324 -0.26559,-0.9489 -0.64571,-0.60078 -0.48339,0.27497 -0.92022,0.67617 -1.44804,0.78828 -0.45136,-0.23696 -0.0984,-0.99316 -0.25,-1.375 -0.28754,-0.26521 -0.92879,-0.0998 -0.75,0.38125 -0.0468,0.55691 0.11183,1.22769 -0.125,1.7125 -0.4863,0.0803 -0.98181,0.88966 -1.4375,0.46875 -0.0419,-0.25237 0.19789,-1.11887 -0.21875,-0.96875 -0.28338,0.16994 -0.64026,0.75577 -0.90625,0.28125 0.0277,-0.57792 -0.19195,-1.41629 0.40625,-1.71875 0.45383,-0.26809 1.13046,-0.34668 1.28125,-0.84375 -0.0555,-0.35975 -0.55379,-0.61463 -0.76887,-0.22313 -0.32044,0.35653 -1.12297,0.48449 -1.01238,-0.18312 0.0566,-0.57008 0.29008,-1.54707 -0.375,-1.75 l -0.0312,0.0312 z"
   id="polygon3833" />
</svg>