<?xml version="1.0" encoding="utf-8"?>
<!-- Generator: Adobe Illustrator 14.0.0, SVG Export Plug-In . SVG Version: 6.00 Build 43363)  -->
<!DOCTYPE svg PUBLIC "-//W3C//DTD SVG 1.1//EN" "http://www.w3.org/Graphics/SVG/1.1/DTD/svg11.dtd">
<svg version="1.1" id="Layer_1" xmlns="http://www.w3.org/2000/svg" xmlns:xlink="http://www.w3.org/1999/xlink" x="0px" y="0px"
	 width="30px" height="30px" viewBox="-291 381 30 30" enable-background="new -291 381 30 30" xml:space="preserve">
<polygon fill="#426091" points="-276.486,396.906 -277.074,396.042 -276.54,395.16 -277.855,392.921 -277.854,394.248 
	-278.996,393.594 -278.992,391.714 -279.619,391.351 -280.133,391.7 -280.133,392.953 -281.836,391.972 -282.5,392.311 
	-282.5,393.089 -280.771,394.027 -281.855,394.636 -281.855,395.346 -281.256,395.645 -279.656,394.706 -278.549,395.346 
	-279.652,396.031 -278.516,396.684 -278.488,396.703 -279.6,397.344 -281.197,396.402 -281.832,396.748 -281.832,397.459 
	-280.713,398.02 -282.5,398.996 -282.5,399.775 -281.777,400.078 -280.074,399.123 -280.074,400.355 -279.559,400.697 
	-278.945,400.316 -278.945,398.477 -277.828,397.832 -277.828,399.188 -276.656,398.436 -276.656,399.717 -278.27,400.637 
	-278.27,401.32 -277.715,401.639 -276.629,401.027 -276.629,402.977 -276.004,403.379 -275.375,402.977 -275.375,401.027 
	-274.289,401.639 -273.736,401.359 -273.736,400.637 -275.35,399.717 -275.35,398.436 -274.205,399.135 -275.514,396.906 "/>
<polygon fill="#426091" points="-273.014,398.531 -273.014,400.377 -272.443,400.699 -271.865,400.377 -271.865,399.16 
	-270.252,400.078 -269.557,399.762 -269.557,398.996 -271.201,398.02 -270.17,397.441 -270.17,396.779 -270.697,396.404 
	-272.342,397.324 -273.508,396.713 -272.377,396.058 -273.475,395.375 -272.342,394.652 -270.697,395.622 -270.139,395.317 
	-270.139,394.625 -271.213,394.026 -269.5,393.05 -269.5,392.324 -270.113,391.95 -271.865,392.896 -271.865,391.615 
	-272.461,391.349 -273.027,391.615 -273.027,393.623 -274.205,394.261 -274.205,392.87 -275.35,393.565 -275.35,392.285 
	-273.678,391.337 -273.678,390.724 -274.246,390.349 -275.375,390.974 -275.375,389.03 -276.004,388.621 -276.629,389.03 
	-276.629,390.974 -277.715,390.361 -278.27,390.685 -278.27,391.364 -276.656,392.285 -276.656,393.565 -277.855,392.921 
	-277.278,394.66 -276.54,395.16 -276.518,395.123 -275.43,395.123 -274.902,396.042 -275.402,396.906 -275.514,396.906 
	-275.41,397.723 -274.205,399.135 -274.205,397.854 "/>
</svg>
