<?xml version="1.0" encoding="utf-8"?>
<!-- Generator: Adobe Illustrator 14.0.0, SVG Export Plug-In . SVG Version: 6.00 Build 43363)  -->
<!DOCTYPE svg PUBLIC "-//W3C//DTD SVG 1.1//EN" "http://www.w3.org/Graphics/SVG/1.1/DTD/svg11.dtd">
<svg version="1.1" id="Layer_1" xmlns="http://www.w3.org/2000/svg" xmlns:xlink="http://www.w3.org/1999/xlink" x="0px" y="0px"
	 width="30px" height="30px" viewBox="0 0 30 30" enable-background="new 0 0 30 30" xml:space="preserve">
<g>
	<circle fill="#FFFFFF" cx="15" cy="15" r="5"/>
	<path fill="#2B2B2B" d="M15,20.5c-3.033,0-5.5-2.468-5.5-5.5c0-3.033,2.467-5.5,5.5-5.5c3.032,0,5.5,2.467,5.5,5.5
		C20.5,18.032,18.032,20.5,15,20.5L15,20.5z M15,10.5c-2.481,0-4.5,2.019-4.5,4.5s2.019,4.5,4.5,4.5s4.5-2.019,4.5-4.5
		S17.481,10.5,15,10.5L15,10.5z"/>
	<polygon fill="#2B2B2B" points="15,10.56 16.008,13.661 19.27,13.661 16.631,15.578 17.639,18.68 15,16.763 12.361,18.68 
		13.369,15.578 10.73,13.661 13.992,13.661 	"/>
</g>
</svg>
