<?xml version="1.0" encoding="utf-8"?>
<!-- Generator: Adobe Illustrator 14.0.0, SVG Export Plug-In . SVG Version: 6.00 Build 43363)  -->
<!DOCTYPE svg PUBLIC "-//W3C//DTD SVG 1.1//EN" "http://www.w3.org/Graphics/SVG/1.1/DTD/svg11.dtd">
<svg version="1.1" id="Layer_1" xmlns="http://www.w3.org/2000/svg" xmlns:xlink="http://www.w3.org/1999/xlink" x="0px" y="0px"
	 width="30px" height="30px" viewBox="-291 381 30 30" enable-background="new -291 381 30 30" xml:space="preserve">
<path d="M-275.999,402.471h0.002h2.617l1.91,2.803h1.541l-2.67-4.01c0.891-0.143,1.777-1.072,1.777-2.203v-8.282
	c0-1.17-0.984-2.243-2.32-2.243l-2.848-0.002l0,0l-2.869,0.002c-1.334,0-2.318,1.073-2.318,2.243v8.282
	c0,1.131,0.887,2.061,1.777,2.203l-2.672,4.01h1.543l1.91-2.803h2.617H-275.999z"/>
<path d="M-275.146,386.727c-0.386,0-0.715,0.236-0.854,0.571c-0.139-0.335-0.467-0.571-0.853-0.571
	c-0.512,0-0.926,0.414-0.926,0.925c0,0.512,0.414,0.925,0.926,0.925c0.386,0,0.714-0.235,0.853-0.57
	c0.14,0.335,0.469,0.57,0.854,0.57c0.512,0,0.926-0.413,0.926-0.925C-274.22,387.141-274.634,386.727-275.146,386.727z"/>
<circle fill="#FFFFFF" cx="-273.118" cy="399.039" r="1.018"/>
<path fill="#FFFFFF" d="M-275.999,394.676h0.002h2.779c0.639,0,1.16-0.438,1.154-1.155v-1.49c0-0.619-0.4-1.159-1.154-1.159h-2.779
	h-0.004h-2.779c-0.754,0-1.154,0.54-1.154,1.159v1.49c-0.006,0.718,0.516,1.155,1.154,1.155h2.779H-275.999z"/>
<path fill="#FFFFFF" d="M-275.999,390.425h0.002h1.123c0.213,0,0.381-0.175,0.381-0.379v-0.658c0-0.203-0.178-0.374-0.381-0.374
	h-1.123h-0.002h-0.002h-1.125c-0.203,0-0.379,0.171-0.379,0.374v0.658c0,0.204,0.168,0.379,0.379,0.379h1.125H-275.999z"/>
<circle fill="#FFFFFF" cx="-278.905" cy="399.039" r="1.018"/>
</svg>
